%TF.GenerationSoftware,KiCad,Pcbnew,(6.0.2)*%
%TF.CreationDate,2022-10-24T07:01:04-05:00*%
%TF.ProjectId,N64NP6,4e36344e-5036-42e6-9b69-6361645f7063,rev?*%
%TF.SameCoordinates,Original*%
%TF.FileFunction,Soldermask,Bot*%
%TF.FilePolarity,Negative*%
%FSLAX46Y46*%
G04 Gerber Fmt 4.6, Leading zero omitted, Abs format (unit mm)*
G04 Created by KiCad (PCBNEW (6.0.2)) date 2022-10-24 07:01:04*
%MOMM*%
%LPD*%
G01*
G04 APERTURE LIST*
G04 Aperture macros list*
%AMRoundRect*
0 Rectangle with rounded corners*
0 $1 Rounding radius*
0 $2 $3 $4 $5 $6 $7 $8 $9 X,Y pos of 4 corners*
0 Add a 4 corners polygon primitive as box body*
4,1,4,$2,$3,$4,$5,$6,$7,$8,$9,$2,$3,0*
0 Add four circle primitives for the rounded corners*
1,1,$1+$1,$2,$3*
1,1,$1+$1,$4,$5*
1,1,$1+$1,$6,$7*
1,1,$1+$1,$8,$9*
0 Add four rect primitives between the rounded corners*
20,1,$1+$1,$2,$3,$4,$5,0*
20,1,$1+$1,$4,$5,$6,$7,0*
20,1,$1+$1,$6,$7,$8,$9,0*
20,1,$1+$1,$8,$9,$2,$3,0*%
G04 Aperture macros list end*
%ADD10C,7.400000*%
%ADD11R,1.500000X10.350000*%
%ADD12RoundRect,0.250000X-0.250000X-1.400000X0.250000X-1.400000X0.250000X1.400000X-0.250000X1.400000X0*%
%ADD13R,1.350000X4.750000*%
G04 APERTURE END LIST*
D10*
%TO.C,Hole1*%
X18051000Y55439000D03*
%TD*%
D11*
%TO.C,J2*%
X23404000Y37184000D03*
X25922000Y37184000D03*
X28447000Y37184000D03*
X30974000Y37184000D03*
X33493000Y37184000D03*
X36012000Y37184000D03*
X38535000Y37184000D03*
X41054000Y37184000D03*
X43573000Y37184000D03*
X46101000Y37184000D03*
X48626000Y37184000D03*
X51147000Y37184000D03*
X53671000Y37184000D03*
X56191000Y37184000D03*
X58711000Y37184000D03*
X61230000Y37184000D03*
X63748000Y37184000D03*
X66272000Y37184000D03*
X68798000Y37184000D03*
X71316000Y37184000D03*
X73836000Y37184000D03*
X76355000Y37184000D03*
X78885000Y37184000D03*
X81411000Y37184000D03*
X83930000Y37184000D03*
%TD*%
D12*
%TO.C,J3*%
X23639000Y78715000D03*
X26139000Y78715000D03*
X28639000Y78715000D03*
X31139000Y78715000D03*
X33639000Y78715000D03*
X36139000Y78715000D03*
X38639000Y78715000D03*
X41139000Y78715000D03*
X43639000Y78715000D03*
X46139000Y78715000D03*
X48639000Y78715000D03*
X51139000Y78715000D03*
X53639000Y78715000D03*
X56139000Y78715000D03*
X58639000Y78715000D03*
X61139000Y78715000D03*
X63639000Y78715000D03*
X66139000Y78715000D03*
X68639000Y78715000D03*
X71139000Y78715000D03*
X73639000Y78715000D03*
X76139000Y78715000D03*
X78639000Y78715000D03*
X81139000Y78715000D03*
X83639000Y78715000D03*
X23639000Y66515000D03*
X26139000Y66515000D03*
X28639000Y66515000D03*
X31139000Y66515000D03*
X33639000Y66515000D03*
X36139000Y66515000D03*
X38639000Y66515000D03*
X41139000Y66515000D03*
X43639000Y66515000D03*
X46139000Y66515000D03*
X48639000Y66515000D03*
X51139000Y66515000D03*
X53639000Y66515000D03*
X56139000Y66515000D03*
X58639000Y66515000D03*
X61139000Y66515000D03*
X63639000Y66515000D03*
X66139000Y66515000D03*
X68639000Y66515000D03*
X71139000Y66515000D03*
X73639000Y66515000D03*
X76139000Y66515000D03*
X78639000Y66515000D03*
X81139000Y66515000D03*
X83639000Y66515000D03*
%TD*%
D13*
%TO.C,J5*%
X23295000Y95327000D03*
X25813000Y95327000D03*
X28338000Y95327000D03*
X30865000Y95327000D03*
X33384000Y95327000D03*
X35903000Y95327000D03*
X38426000Y95327000D03*
X40945000Y95327000D03*
X43464000Y95327000D03*
X45992000Y95327000D03*
X48517000Y95327000D03*
X51038000Y95327000D03*
X53562000Y95327000D03*
X56082000Y95327000D03*
X58602000Y95327000D03*
X61121000Y95327000D03*
X63639000Y95327000D03*
X66163000Y95327000D03*
X68689000Y95327000D03*
X71207000Y95327000D03*
X73727000Y95327000D03*
X76246000Y95327000D03*
X78776000Y95327000D03*
X81302000Y95327000D03*
X83821000Y95327000D03*
%TD*%
D10*
%TO.C,Hole2*%
X89309000Y55439000D03*
%TD*%
M02*
