%TF.GenerationSoftware,KiCad,Pcbnew,(6.0.2)*%
%TF.CreationDate,2022-10-24T07:01:04-05:00*%
%TF.ProjectId,N64NP6,4e36344e-5036-42e6-9b69-6361645f7063,rev?*%
%TF.SameCoordinates,Original*%
%TF.FileFunction,Copper,L2,Bot*%
%TF.FilePolarity,Positive*%
%FSLAX46Y46*%
G04 Gerber Fmt 4.6, Leading zero omitted, Abs format (unit mm)*
G04 Created by KiCad (PCBNEW (6.0.2)) date 2022-10-24 07:01:04*
%MOMM*%
%LPD*%
G01*
G04 APERTURE LIST*
G04 Aperture macros list*
%AMRoundRect*
0 Rectangle with rounded corners*
0 $1 Rounding radius*
0 $2 $3 $4 $5 $6 $7 $8 $9 X,Y pos of 4 corners*
0 Add a 4 corners polygon primitive as box body*
4,1,4,$2,$3,$4,$5,$6,$7,$8,$9,$2,$3,0*
0 Add four circle primitives for the rounded corners*
1,1,$1+$1,$2,$3*
1,1,$1+$1,$4,$5*
1,1,$1+$1,$6,$7*
1,1,$1+$1,$8,$9*
0 Add four rect primitives between the rounded corners*
20,1,$1+$1,$2,$3,$4,$5,0*
20,1,$1+$1,$4,$5,$6,$7,0*
20,1,$1+$1,$6,$7,$8,$9,0*
20,1,$1+$1,$8,$9,$2,$3,0*%
G04 Aperture macros list end*
%TA.AperFunction,SMDPad,CuDef*%
%ADD10R,1.500000X10.350000*%
%TD*%
%TA.AperFunction,SMDPad,CuDef*%
%ADD11RoundRect,0.250000X-0.250000X-1.400000X0.250000X-1.400000X0.250000X1.400000X-0.250000X1.400000X0*%
%TD*%
%TA.AperFunction,SMDPad,CuDef*%
%ADD12R,1.350000X4.750000*%
%TD*%
%TA.AperFunction,ViaPad*%
%ADD13C,0.800000*%
%TD*%
%TA.AperFunction,Conductor*%
%ADD14C,0.250000*%
%TD*%
%TA.AperFunction,Conductor*%
%ADD15C,0.500000*%
%TD*%
G04 APERTURE END LIST*
D10*
%TO.P,J2,26,Pin_25*%
%TO.N,/GND*%
X23404000Y37184000D03*
%TO.P,J2,27,Pin_24*%
X25922000Y37184000D03*
%TO.P,J2,28,Pin_23*%
%TO.N,/AD0*%
X28447000Y37184000D03*
%TO.P,J2,29,Pin_22*%
%TO.N,/AD1*%
X30974000Y37184000D03*
%TO.P,J2,30,Pin_21*%
%TO.N,/AD2*%
X33493000Y37184000D03*
%TO.P,J2,31,Pin_20*%
%TO.N,/GND*%
X36012000Y37184000D03*
%TO.P,J2,32,Pin_19*%
%TO.N,/AD3*%
X38535000Y37184000D03*
%TO.P,J2,33,Pin_18*%
%TO.N,/ALE_L*%
X41054000Y37184000D03*
%TO.P,J2,34,Pin_17*%
%TO.N,/VCC*%
X43573000Y37184000D03*
%TO.P,J2,35,Pin_16*%
%TO.N,/ALE_H*%
X46101000Y37184000D03*
%TO.P,J2,36,Pin_15*%
%TO.N,/AD4*%
X48626000Y37184000D03*
%TO.P,J2,37,Pin_14*%
%TO.N,/AD5*%
X51147000Y37184000D03*
%TO.P,J2,38,Pin_13*%
%TO.N,/12V_Rear*%
X53671000Y37184000D03*
%TO.P,J2,39,Pin_12*%
%TO.N,unconnected-(J2-Pad39)*%
X56191000Y37184000D03*
%TO.P,J2,40,Pin_11*%
%TO.N,/AD6*%
X58711000Y37184000D03*
%TO.P,J2,41,Pin_10*%
%TO.N,/AD7*%
X61230000Y37184000D03*
%TO.P,J2,42,Pin_9*%
%TO.N,/VCC*%
X63748000Y37184000D03*
%TO.P,J2,43,Pin_8*%
%TO.N,/CIC_14*%
X66272000Y37184000D03*
%TO.P,J2,44,Pin_7*%
%TO.N,/{slash}INT1*%
X68798000Y37184000D03*
%TO.P,J2,45,Pin_6*%
%TO.N,/{slash}NMI*%
X71316000Y37184000D03*
%TO.P,J2,46,Pin_5*%
%TO.N,/VIDEO_SYNC*%
X73836000Y37184000D03*
%TO.P,J2,47,Pin_4*%
%TO.N,/GND*%
X76355000Y37184000D03*
%TO.P,J2,48,Pin_3*%
X78885000Y37184000D03*
%TO.P,J2,49,Pin_2*%
%TO.N,/RAUDIO*%
X81411000Y37184000D03*
%TO.P,J2,50,Pin_1*%
%TO.N,/GND*%
X83930000Y37184000D03*
%TD*%
D11*
%TO.P,J3,1,Pin_1*%
%TO.N,/GND*%
X23639000Y78715000D03*
%TO.P,J3,2,Pin_2*%
X26139000Y78715000D03*
%TO.P,J3,3,Pin_3*%
%TO.N,/AD15*%
X28639000Y78715000D03*
%TO.P,J3,4,Pin_4*%
%TO.N,/AD14*%
X31139000Y78715000D03*
%TO.P,J3,5,Pin_5*%
%TO.N,/AD13*%
X33639000Y78715000D03*
%TO.P,J3,6,Pin_6*%
%TO.N,/GND*%
X36139000Y78715000D03*
%TO.P,J3,7,Pin_7*%
%TO.N,/AD12*%
X38639000Y78715000D03*
%TO.P,J3,8,Pin_8*%
%TO.N,/{slash}write*%
X41139000Y78715000D03*
%TO.P,J3,9,Pin_9*%
%TO.N,/VCC*%
X43639000Y78715000D03*
%TO.P,J3,10,Pin_10*%
%TO.N,/{slash}read_middle*%
X46139000Y78715000D03*
%TO.P,J3,11,Pin_11*%
%TO.N,/AD11*%
X48639000Y78715000D03*
%TO.P,J3,12,Pin_12*%
%TO.N,/AD10*%
X51139000Y78715000D03*
%TO.P,J3,13,Pin_13*%
%TO.N,/12V_Front*%
X53639000Y78715000D03*
%TO.P,J3,14,Pin_14*%
%TO.N,/12V_2_Front*%
X56139000Y78715000D03*
%TO.P,J3,15,Pin_15*%
%TO.N,/AD9*%
X58639000Y78715000D03*
%TO.P,J3,16,Pin_16*%
%TO.N,/AD8*%
X61139000Y78715000D03*
%TO.P,J3,17,Pin_17*%
%TO.N,/VCC*%
X63639000Y78715000D03*
%TO.P,J3,18,Pin_18*%
%TO.N,/CIC_15*%
X66139000Y78715000D03*
%TO.P,J3,19,Pin_19*%
%TO.N,/CIC_11*%
X68639000Y78715000D03*
%TO.P,J3,20,Pin_20*%
%TO.N,/{slash}COLD_RESET*%
X71139000Y78715000D03*
%TO.P,J3,21,Pin_21*%
%TO.N,unconnected-(J3-Pad21)*%
X73639000Y78715000D03*
%TO.P,J3,22,Pin_22*%
%TO.N,/GND*%
X76139000Y78715000D03*
%TO.P,J3,23,Pin_23*%
X78639000Y78715000D03*
%TO.P,J3,24,Pin_24*%
%TO.N,/LAUDIO*%
X81139000Y78715000D03*
%TO.P,J3,25,Pin_25*%
%TO.N,/GND*%
X83639000Y78715000D03*
%TO.P,J3,26,Pin_25*%
X23639000Y66515000D03*
%TO.P,J3,27,Pin_24*%
X26139000Y66515000D03*
%TO.P,J3,28,Pin_23*%
%TO.N,/AD0*%
X28639000Y66515000D03*
%TO.P,J3,29,Pin_22*%
%TO.N,/AD1*%
X31139000Y66515000D03*
%TO.P,J3,30,Pin_21*%
%TO.N,/AD2*%
X33639000Y66515000D03*
%TO.P,J3,31,Pin_20*%
%TO.N,/GND*%
X36139000Y66515000D03*
%TO.P,J3,32,Pin_19*%
%TO.N,/AD3*%
X38639000Y66515000D03*
%TO.P,J3,33,Pin_18*%
%TO.N,/ALE_L*%
X41139000Y66515000D03*
%TO.P,J3,34,Pin_17*%
%TO.N,/VCC*%
X43639000Y66515000D03*
%TO.P,J3,35,Pin_16*%
%TO.N,/ALE_H*%
X46139000Y66515000D03*
%TO.P,J3,36,Pin_15*%
%TO.N,/AD4*%
X48639000Y66515000D03*
%TO.P,J3,37,Pin_14*%
%TO.N,/AD5*%
X51139000Y66515000D03*
%TO.P,J3,38,Pin_13*%
%TO.N,/12V_Rear*%
X53639000Y66515000D03*
%TO.P,J3,39,Pin_12*%
%TO.N,/12V_2_Rear*%
X56139000Y66515000D03*
%TO.P,J3,40,Pin_11*%
%TO.N,/AD6*%
X58639000Y66515000D03*
%TO.P,J3,41,Pin_10*%
%TO.N,/AD7*%
X61139000Y66515000D03*
%TO.P,J3,42,Pin_9*%
%TO.N,/VCC*%
X63639000Y66515000D03*
%TO.P,J3,43,Pin_8*%
%TO.N,/CIC_14*%
X66139000Y66515000D03*
%TO.P,J3,44,Pin_7*%
%TO.N,/{slash}INT1*%
X68639000Y66515000D03*
%TO.P,J3,45,Pin_6*%
%TO.N,/{slash}NMI*%
X71139000Y66515000D03*
%TO.P,J3,46,Pin_5*%
%TO.N,/VIDEO_SYNC*%
X73639000Y66515000D03*
%TO.P,J3,47,Pin_4*%
%TO.N,/GND*%
X76139000Y66515000D03*
%TO.P,J3,48,Pin_3*%
X78639000Y66515000D03*
%TO.P,J3,49,Pin_2*%
%TO.N,/RAUDIO*%
X81139000Y66515000D03*
%TO.P,J3,50,Pin_1*%
%TO.N,/GND*%
X83639000Y66515000D03*
%TD*%
D12*
%TO.P,J5,26,Pin_1*%
%TO.N,/GND*%
X23295000Y95327000D03*
%TO.P,J5,27,Pin_2*%
X25813000Y95327000D03*
%TO.P,J5,28,Pin_3*%
%TO.N,/AD0*%
X28338000Y95327000D03*
%TO.P,J5,29,Pin_4*%
%TO.N,/AD1*%
X30865000Y95327000D03*
%TO.P,J5,30,Pin_5*%
%TO.N,/AD2*%
X33384000Y95327000D03*
%TO.P,J5,31,Pin_6*%
%TO.N,/GND*%
X35903000Y95327000D03*
%TO.P,J5,32,Pin_7*%
%TO.N,/AD3*%
X38426000Y95327000D03*
%TO.P,J5,33,Pin_8*%
%TO.N,/ALE_L*%
X40945000Y95327000D03*
%TO.P,J5,34,Pin_9*%
%TO.N,/VCC*%
X43464000Y95327000D03*
%TO.P,J5,35,Pin_10*%
%TO.N,/ALE_H*%
X45992000Y95327000D03*
%TO.P,J5,36,Pin_11*%
%TO.N,/AD4*%
X48517000Y95327000D03*
%TO.P,J5,37,Pin_12*%
%TO.N,/AD5*%
X51038000Y95327000D03*
%TO.P,J5,38,Pin_13*%
%TO.N,/12V_Rear*%
X53562000Y95327000D03*
%TO.P,J5,39,Pin_14*%
%TO.N,/12V_2_Rear*%
X56082000Y95327000D03*
%TO.P,J5,40,Pin_15*%
%TO.N,/AD6*%
X58602000Y95327000D03*
%TO.P,J5,41,Pin_16*%
%TO.N,/AD7*%
X61121000Y95327000D03*
%TO.P,J5,42,Pin_17*%
%TO.N,/VCC*%
X63639000Y95327000D03*
%TO.P,J5,43,Pin_18*%
%TO.N,unconnected-(J5-Pad43)*%
X66163000Y95327000D03*
%TO.P,J5,44,Pin_19*%
%TO.N,/{slash}INT1*%
X68689000Y95327000D03*
%TO.P,J5,45,Pin_20*%
%TO.N,/{slash}NMI*%
X71207000Y95327000D03*
%TO.P,J5,46,Pin_21*%
%TO.N,/VIDEO_SYNC*%
X73727000Y95327000D03*
%TO.P,J5,47,Pin_22*%
%TO.N,/GND*%
X76246000Y95327000D03*
%TO.P,J5,48,Pin_23*%
X78776000Y95327000D03*
%TO.P,J5,49,Pin_24*%
%TO.N,/RAUDIO*%
X81302000Y95327000D03*
%TO.P,J5,50,Pin_25*%
%TO.N,/GND*%
X83821000Y95327000D03*
%TD*%
D13*
%TO.N,/Loop1*%
X54467700Y71820600D03*
X56719000Y50674600D03*
%TO.N,/Altera_39*%
X40927300Y49821300D03*
X40376200Y58780800D03*
%TO.N,/{slash}read_middle*%
X45790200Y59139300D03*
%TO.N,/{slash}read_top*%
X46731700Y92334700D03*
X46709500Y85132800D03*
%TO.N,/12V_2_Front*%
X56082000Y91248200D03*
%TO.N,/LAUDIO*%
X81684600Y86241300D03*
%TO.N,/{slash}COLD_RESET*%
X71284400Y91086900D03*
X25473400Y72233900D03*
X18556400Y79873800D03*
X68742200Y69899000D03*
%TO.N,/CIC_11*%
X69219700Y90603600D03*
%TO.N,/CIC_15*%
X67382500Y43118800D03*
%TO.N,/12V_Front*%
X52661100Y43020000D03*
X53557800Y91252400D03*
%TO.N,/{slash}read_bottom*%
X47135700Y43083000D03*
X47375500Y67382100D03*
X25440800Y71174000D03*
X17142500Y80711700D03*
%TO.N,/{slash}write*%
X42257900Y78697500D03*
X41880300Y91278100D03*
X41159200Y88300300D03*
X42075400Y43518100D03*
%TO.N,/ALE_H*%
X45442000Y89322700D03*
X45238000Y82318900D03*
%TO.N,/ALE_L*%
X40219800Y72896200D03*
X40160600Y89631200D03*
%TO.N,/AD0*%
X28962800Y68848300D03*
%TO.N,/AD1*%
X30305400Y70435400D03*
%TO.N,/AD2*%
X35781700Y61626300D03*
X35176800Y51949100D03*
%TO.N,/AD3*%
X38535000Y49541400D03*
X40927300Y63844300D03*
X65353900Y62898300D03*
X65353900Y56364900D03*
%TO.N,/AD4*%
X48377300Y62424500D03*
X40477200Y62424500D03*
X37696300Y50282300D03*
X48934100Y53537100D03*
%TO.N,/AD5*%
X51332500Y52014700D03*
X51139000Y55755700D03*
X40477200Y55755700D03*
X39178500Y52674200D03*
%TO.N,/AD6*%
X59423400Y60084100D03*
X59144100Y51411500D03*
%TO.N,/AD7*%
X60266200Y84207900D03*
X60842100Y48051300D03*
%TO.N,/VCC*%
X63639000Y92342800D03*
X63748000Y42990100D03*
X43639000Y73724000D03*
X44747900Y78501800D03*
X43335100Y45897200D03*
X43365700Y42970200D03*
X62470500Y46611000D03*
X43382900Y87698100D03*
X62389000Y79840600D03*
X43382900Y92335900D03*
X62935300Y64256600D03*
X43891300Y49768100D03*
X90533000Y66288800D03*
X84378100Y55000000D03*
%TO.N,/SST_Write*%
X68473400Y48992900D03*
X70746300Y53811000D03*
X71665600Y44162300D03*
%TO.N,/A13*%
X80075800Y52101300D03*
X80708200Y64260700D03*
%TO.N,/A8*%
X78164000Y52083600D03*
X78414300Y64264000D03*
X64497400Y60012500D03*
X65823500Y45285100D03*
%TO.N,/A9*%
X73452000Y70829600D03*
X72811800Y82254700D03*
X72856500Y54895800D03*
%TO.N,/A11*%
X75030400Y52052200D03*
X76161400Y64242300D03*
%TO.N,/Output_Enable*%
X74069800Y52538200D03*
X73940500Y64252500D03*
%TO.N,/A10*%
X37464700Y55359500D03*
X38672900Y69261500D03*
X64717900Y68736500D03*
X64269400Y47508100D03*
%TO.N,/Chip_Enable*%
X69560000Y68455800D03*
X70934200Y52099300D03*
X68130300Y86903400D03*
%TO.N,/AD15*%
X28572100Y92315800D03*
X73415700Y73561100D03*
X72828100Y86219500D03*
X29743200Y74586500D03*
X29793000Y45040600D03*
%TO.N,/AD14*%
X30349600Y92111500D03*
X65532800Y70972000D03*
X65022300Y85728100D03*
X32888000Y76181900D03*
X31874800Y43430600D03*
%TO.N,/AD13*%
X33402000Y92314300D03*
X33770300Y72348000D03*
X33096200Y44729000D03*
%TO.N,/AD12*%
X37378200Y79568100D03*
X39071900Y71406000D03*
X37358100Y42850500D03*
X37807100Y91408300D03*
%TO.N,/AD11*%
X49497700Y62377600D03*
X49424400Y42990400D03*
X64370400Y62157800D03*
X66141700Y74255200D03*
X48876200Y91950200D03*
%TO.N,/GND*%
X35849100Y43009300D03*
X38253500Y75133100D03*
X83629000Y43024700D03*
X82171300Y43941600D03*
X79073000Y42997100D03*
X78086700Y92310900D03*
X26323500Y68944500D03*
X76647600Y57645800D03*
X74302900Y74724900D03*
X86565300Y62568900D03*
X25922000Y45710500D03*
X83821000Y91972200D03*
X36139000Y91914900D03*
%TO.N,/AD10*%
X50546900Y43149000D03*
X49485600Y90420000D03*
X52007200Y80830300D03*
%TO.N,/AD9*%
X57519700Y68019000D03*
X57516400Y42779900D03*
X58379600Y91771000D03*
X58639000Y74218000D03*
%TO.N,/AD8*%
X61916700Y43071400D03*
X59572500Y56558700D03*
X61057300Y91527600D03*
X62314600Y76912000D03*
%TO.N,/A0*%
X70285200Y64505000D03*
X71685700Y76395200D03*
%TO.N,/A1*%
X72056900Y72836000D03*
X72030100Y64016000D03*
%TO.N,/A2*%
X75648300Y73574100D03*
X74676100Y59998100D03*
%TO.N,/A3*%
X68493400Y81594800D03*
X70171800Y83967400D03*
X75795200Y72152500D03*
X75805500Y60028700D03*
%TO.N,/A4*%
X62918200Y80992300D03*
X65590200Y83669300D03*
X78081900Y75177100D03*
X78604800Y59639600D03*
%TO.N,/A5*%
X77351900Y66631000D03*
X78028300Y76448200D03*
%TO.N,/A6*%
X68758100Y63702600D03*
X70373900Y56512400D03*
X79946700Y63524200D03*
X79474000Y76074600D03*
%TO.N,/A7*%
X82884200Y81027500D03*
X82158700Y63231100D03*
X65091000Y72496200D03*
X66780800Y85444100D03*
%TO.N,/A12*%
X74324200Y47937600D03*
X76113200Y55985300D03*
X84743100Y65778500D03*
X84743100Y78591000D03*
%TO.N,/A15*%
X80289800Y76693100D03*
X55104300Y59463700D03*
X55752400Y83255200D03*
X78052300Y82221400D03*
X81748300Y69052200D03*
%TO.N,/A16*%
X69054800Y60914100D03*
X70385500Y55510500D03*
X85710100Y64673200D03*
X85845000Y75552400D03*
%TD*%
D14*
%TO.N,/Loop1*%
X54379200Y53014400D02*
X56719000Y50674600D01*
X54379200Y59764000D02*
X54379200Y53014400D01*
X54467700Y59852500D02*
X54379200Y59764000D01*
X54467700Y71820600D02*
X54467700Y59852500D01*
%TO.N,/Altera_39*%
X41202400Y50096400D02*
X40927300Y49821300D01*
X41202400Y57954600D02*
X41202400Y50096400D01*
X40376200Y58780800D02*
X41202400Y57954600D01*
%TO.N,/{slash}read_middle*%
X45271600Y59657900D02*
X45790200Y59139300D01*
X45271600Y77847600D02*
X45271600Y59657900D01*
X46139000Y78715000D02*
X45271600Y77847600D01*
%TO.N,/{slash}read_top*%
X46731700Y85155000D02*
X46709500Y85132800D01*
X46731700Y92334700D02*
X46731700Y85155000D01*
D15*
%TO.N,/12V_2_Front*%
X56602500Y90727700D02*
X56082000Y91248200D01*
X56602500Y79178500D02*
X56602500Y90727700D01*
X56139000Y78715000D02*
X56602500Y79178500D01*
D14*
%TO.N,/LAUDIO*%
X81684600Y79260600D02*
X81684600Y86241300D01*
X81139000Y78715000D02*
X81684600Y79260600D01*
%TO.N,/{slash}COLD_RESET*%
X25473400Y72956800D02*
X18556400Y79873800D01*
X25473400Y72233900D02*
X25473400Y72956800D01*
X71139000Y90941500D02*
X71139000Y78715000D01*
X71284400Y91086900D02*
X71139000Y90941500D01*
X68742200Y76318200D02*
X68742200Y69899000D01*
X71139000Y78715000D02*
X68742200Y76318200D01*
%TO.N,/CIC_11*%
X69305500Y90517800D02*
X69219700Y90603600D01*
X69305500Y79381500D02*
X69305500Y90517800D01*
X68639000Y78715000D02*
X69305500Y79381500D01*
%TO.N,/CIC_15*%
X67211200Y43290100D02*
X67382500Y43118800D01*
X67211200Y68647200D02*
X67211200Y43290100D01*
X66866900Y68991500D02*
X67211200Y68647200D01*
X66866900Y77987100D02*
X66866900Y68991500D01*
X66139000Y78715000D02*
X66866900Y77987100D01*
D15*
%TO.N,/12V_Front*%
X53557800Y78715000D02*
X53639000Y78715000D01*
X52661100Y77818300D02*
X53557800Y78715000D01*
X52661100Y43020000D02*
X52661100Y77818300D01*
X53557800Y78715000D02*
X53557800Y91252400D01*
D14*
%TO.N,/{slash}read_bottom*%
X47375500Y43322800D02*
X47135700Y43083000D01*
X47375500Y67382100D02*
X47375500Y43322800D01*
X17142500Y79472300D02*
X25440800Y71174000D01*
X17142500Y80711700D02*
X17142500Y79472300D01*
%TO.N,/{slash}write*%
X41139000Y88280100D02*
X41139000Y78715000D01*
X41159200Y88300300D02*
X41139000Y88280100D01*
X41159200Y90557000D02*
X41159200Y88300300D01*
X41880300Y91278100D02*
X41159200Y90557000D01*
X42240400Y78715000D02*
X42257900Y78697500D01*
X41139000Y78715000D02*
X42240400Y78715000D01*
X42257900Y43700600D02*
X42075400Y43518100D01*
X42257900Y78697500D02*
X42257900Y43700600D01*
D15*
%TO.N,/12V_2_Rear*%
X56082000Y95327000D02*
X56082000Y92501900D01*
X57320000Y91263900D02*
X56082000Y92501900D01*
X57320000Y70439300D02*
X57320000Y91263900D01*
X56139000Y69258300D02*
X57320000Y70439300D01*
X56139000Y66515000D02*
X56139000Y69258300D01*
D14*
%TO.N,/RAUDIO*%
X81302000Y95327000D02*
X81302000Y92626900D01*
X81411000Y37184000D02*
X81411000Y42684100D01*
X81139000Y66515000D02*
X81411000Y66515000D01*
X81497400Y66428600D02*
X81411000Y66515000D01*
X81497400Y63723200D02*
X81497400Y66428600D01*
X81163300Y63389100D02*
X81497400Y63723200D01*
X81163300Y63078700D02*
X81163300Y63389100D01*
X81003600Y62919000D02*
X81163300Y63078700D01*
X81003600Y43091500D02*
X81003600Y62919000D01*
X81411000Y42684100D02*
X81003600Y43091500D01*
X82429200Y91499700D02*
X81302000Y92626900D01*
X82429200Y81597900D02*
X82429200Y91499700D01*
X82159100Y81327800D02*
X82429200Y81597900D01*
X82159100Y69889300D02*
X82159100Y81327800D01*
X82549000Y69499400D02*
X82159100Y69889300D01*
X82549000Y68719800D02*
X82549000Y69499400D01*
X81411000Y67581800D02*
X82549000Y68719800D01*
X81411000Y66515000D02*
X81411000Y67581800D01*
%TO.N,/VIDEO_SYNC*%
X73727000Y95327000D02*
X73727000Y92626900D01*
X73836000Y37184000D02*
X73836000Y42684100D01*
X74225400Y67101400D02*
X73639000Y66515000D01*
X74225400Y73777100D02*
X74225400Y67101400D01*
X73577800Y74424700D02*
X74225400Y73777100D01*
X73577800Y75025200D02*
X73577800Y74424700D01*
X74929300Y76376700D02*
X73577800Y75025200D01*
X74929300Y91424600D02*
X74929300Y76376700D01*
X73727000Y92626900D02*
X74929300Y91424600D01*
X73306900Y43213200D02*
X73836000Y42684100D01*
X73306900Y54320700D02*
X73306900Y43213200D01*
X73581600Y54595400D02*
X73306900Y54320700D01*
X73581600Y58916600D02*
X73581600Y54595400D01*
X73215300Y59282900D02*
X73581600Y58916600D01*
X73215300Y66091300D02*
X73215300Y59282900D01*
X73639000Y66515000D02*
X73215300Y66091300D01*
%TO.N,/{slash}NMI*%
X71316000Y37184000D02*
X71316000Y42684100D01*
X71207000Y95327000D02*
X71207000Y92626900D01*
X72021400Y91812500D02*
X71207000Y92626900D01*
X72021400Y77085000D02*
X72021400Y91812500D01*
X72412600Y76693800D02*
X72021400Y77085000D01*
X72412600Y76096600D02*
X72412600Y76693800D01*
X71139000Y74823000D02*
X72412600Y76096600D01*
X71139000Y66515000D02*
X71139000Y74823000D01*
X71139000Y63881700D02*
X71139000Y66515000D01*
X71921500Y63099200D02*
X71139000Y63881700D01*
X71921500Y44931800D02*
X71921500Y63099200D01*
X72390700Y44462600D02*
X71921500Y44931800D01*
X72390700Y43758800D02*
X72390700Y44462600D01*
X71316000Y42684100D02*
X72390700Y43758800D01*
%TO.N,/{slash}INT1*%
X68798000Y37184000D02*
X68798000Y42684100D01*
X68689000Y95327000D02*
X68689000Y92626900D01*
X68798000Y47130300D02*
X68798000Y42684100D01*
X67748300Y48180000D02*
X68798000Y47130300D01*
X67748300Y65624300D02*
X67748300Y48180000D01*
X68639000Y66515000D02*
X67748300Y65624300D01*
X68639000Y67856100D02*
X68639000Y66515000D01*
X67317000Y69178100D02*
X68639000Y67856100D01*
X67317000Y83149600D02*
X67317000Y69178100D01*
X67580600Y83413200D02*
X67317000Y83149600D01*
X67580600Y86427700D02*
X67580600Y83413200D01*
X67405200Y86603100D02*
X67580600Y86427700D01*
X67405200Y91343100D02*
X67405200Y86603100D01*
X68689000Y92626900D02*
X67405200Y91343100D01*
%TO.N,/CIC_14*%
X66272000Y37184000D02*
X66272000Y42684100D01*
X66548600Y66105400D02*
X66139000Y66515000D01*
X66548600Y42960700D02*
X66548600Y66105400D01*
X66272000Y42684100D02*
X66548600Y42960700D01*
D15*
%TO.N,/12V_Rear*%
X53562000Y95327000D02*
X53562000Y92501900D01*
X53671000Y37184000D02*
X53671000Y42809100D01*
X53597600Y66556400D02*
X53639000Y66515000D01*
X53597600Y72192700D02*
X53597600Y66556400D01*
X54624600Y73219700D02*
X53597600Y72192700D01*
X54624600Y91439300D02*
X54624600Y73219700D01*
X53562000Y92501900D02*
X54624600Y91439300D01*
X53639000Y42841100D02*
X53671000Y42809100D01*
X53639000Y66515000D02*
X53639000Y42841100D01*
D14*
%TO.N,/ALE_H*%
X46101000Y37184000D02*
X46101000Y42684100D01*
X46551100Y66102900D02*
X46139000Y66515000D01*
X46551100Y44214300D02*
X46551100Y66102900D01*
X46101000Y43764200D02*
X46551100Y44214300D01*
X46101000Y42684100D02*
X46101000Y43764200D01*
X45992000Y95327000D02*
X45992000Y92626900D01*
X45442000Y92076900D02*
X45442000Y89322700D01*
X45992000Y92626900D02*
X45442000Y92076900D01*
X46139000Y69810300D02*
X46139000Y66515000D01*
X46972800Y70644100D02*
X46139000Y69810300D01*
X46972800Y80584100D02*
X46972800Y70644100D01*
X45238000Y82318900D02*
X46972800Y80584100D01*
X45442000Y82522900D02*
X45238000Y82318900D01*
X45442000Y89322700D02*
X45442000Y82522900D01*
%TO.N,/ALE_L*%
X41054000Y37184000D02*
X41054000Y42684100D01*
X41139000Y71977000D02*
X40219800Y72896200D01*
X41139000Y66515000D02*
X41139000Y71977000D01*
X41054000Y48751200D02*
X41054000Y42684100D01*
X41652600Y49349800D02*
X41054000Y48751200D01*
X41652600Y66001400D02*
X41652600Y49349800D01*
X41139000Y66515000D02*
X41652600Y66001400D01*
X40945000Y95327000D02*
X40945000Y92626900D01*
X40219800Y89631200D02*
X40160600Y89631200D01*
X40219800Y91901700D02*
X40219800Y89631200D01*
X40945000Y92626900D02*
X40219800Y91901700D01*
X40219800Y89631200D02*
X40219800Y72896200D01*
%TO.N,/AD0*%
X28447000Y66323000D02*
X28639000Y66515000D01*
X28447000Y42684100D02*
X28447000Y66323000D01*
X28447000Y37184000D02*
X28447000Y42684100D01*
X28639000Y68848300D02*
X28639000Y66515000D01*
X27812900Y69674400D02*
X28639000Y68848300D01*
X27812900Y94801900D02*
X27812900Y69674400D01*
X28338000Y95327000D02*
X27812900Y94801900D01*
X28639000Y68848300D02*
X28962800Y68848300D01*
%TO.N,/AD1*%
X31139000Y42849100D02*
X30974000Y42684100D01*
X31139000Y66515000D02*
X31139000Y42849100D01*
X30974000Y37184000D02*
X30974000Y42684100D01*
X30982700Y75300800D02*
X30982700Y70435400D01*
X29624100Y76659400D02*
X30982700Y75300800D01*
X29624100Y94086100D02*
X29624100Y76659400D01*
X30865000Y95327000D02*
X29624100Y94086100D01*
X31139000Y70279100D02*
X30982700Y70435400D01*
X31139000Y66515000D02*
X31139000Y70279100D01*
X30982700Y70435400D02*
X30305400Y70435400D01*
%TO.N,/AD2*%
X33493000Y37184000D02*
X33493000Y42684100D01*
X33639000Y63044000D02*
X35056700Y61626300D01*
X33639000Y66515000D02*
X33639000Y63044000D01*
X35056700Y61626300D02*
X35781700Y61626300D01*
X35056700Y43984900D02*
X35056700Y51949100D01*
X33755900Y42684100D02*
X35056700Y43984900D01*
X33493000Y42684100D02*
X33755900Y42684100D01*
X35056700Y51949100D02*
X35056700Y61626300D01*
X35056700Y51949100D02*
X35176800Y51949100D01*
X34510900Y67386900D02*
X33639000Y66515000D01*
X34510900Y94200100D02*
X34510900Y67386900D01*
X33384000Y95327000D02*
X34510900Y94200100D01*
%TO.N,/AD3*%
X38535000Y37184000D02*
X38535000Y42684100D01*
X38426000Y95327000D02*
X38426000Y92626900D01*
X65353900Y62898300D02*
X65353900Y56364900D01*
X38535000Y42684100D02*
X38535000Y49541400D01*
X38453400Y49623000D02*
X38535000Y49541400D01*
X38453400Y54686100D02*
X38453400Y49623000D01*
X38639900Y54872600D02*
X38453400Y54686100D01*
X38639900Y58104600D02*
X38639900Y54872600D01*
X41202400Y60667100D02*
X38639900Y58104600D01*
X41202400Y63569200D02*
X41202400Y60667100D01*
X40927300Y63844300D02*
X41202400Y63569200D01*
X40927300Y64226700D02*
X40927300Y63844300D01*
X38639000Y66515000D02*
X40927300Y64226700D01*
X39797000Y67673000D02*
X38639000Y66515000D01*
X39797000Y71706400D02*
X39797000Y67673000D01*
X39472800Y72030600D02*
X39797000Y71706400D01*
X39472800Y89293600D02*
X39472800Y72030600D01*
X39435500Y89330900D02*
X39472800Y89293600D01*
X39435500Y91617400D02*
X39435500Y89330900D01*
X38426000Y92626900D02*
X39435500Y91617400D01*
%TO.N,/AD4*%
X48377300Y66253300D02*
X48377300Y62424500D01*
X48639000Y66515000D02*
X48377300Y66253300D01*
X48626000Y37184000D02*
X48626000Y42684100D01*
X48626000Y53537100D02*
X48626000Y42684100D01*
X48377300Y53785800D02*
X48626000Y53537100D01*
X48377300Y62424500D02*
X48377300Y53785800D01*
X48626000Y53537100D02*
X48934100Y53537100D01*
X38189800Y60137100D02*
X40477200Y62424500D01*
X38189800Y55059100D02*
X38189800Y60137100D01*
X37787800Y54657100D02*
X38189800Y55059100D01*
X37787800Y50373700D02*
X37787800Y54657100D01*
X37787700Y50373700D02*
X37787800Y50373700D01*
X37696300Y50282300D02*
X37787700Y50373700D01*
X48639000Y67620000D02*
X48639000Y66515000D01*
X47805400Y68453600D02*
X48639000Y67620000D01*
X47805400Y91915300D02*
X47805400Y68453600D01*
X48517000Y92626900D02*
X47805400Y91915300D01*
X48517000Y95327000D02*
X48517000Y92626900D01*
%TO.N,/AD5*%
X51038000Y95327000D02*
X51038000Y92626900D01*
X51332500Y42869600D02*
X51147000Y42684100D01*
X51332500Y52014700D02*
X51332500Y42869600D01*
X51147000Y37184000D02*
X51147000Y42684100D01*
X51139000Y52208200D02*
X51139000Y55755700D01*
X51332500Y52014700D02*
X51139000Y52208200D01*
X40477200Y53972900D02*
X39178500Y52674200D01*
X40477200Y55755700D02*
X40477200Y53972900D01*
X51139000Y66515000D02*
X51139000Y55755700D01*
X52732300Y90932600D02*
X51038000Y92626900D01*
X52732300Y80529900D02*
X52732300Y90932600D01*
X52026200Y79823800D02*
X52732300Y80529900D01*
X52026200Y67402200D02*
X52026200Y79823800D01*
X51139000Y66515000D02*
X52026200Y67402200D01*
%TO.N,/AD6*%
X58639000Y60868500D02*
X59423400Y60084100D01*
X58639000Y66515000D02*
X58639000Y60868500D01*
X58711000Y37184000D02*
X58711000Y42684100D01*
X59144100Y43117200D02*
X58711000Y42684100D01*
X59144100Y51411500D02*
X59144100Y43117200D01*
X59471800Y67347800D02*
X58639000Y66515000D01*
X59471800Y91757100D02*
X59471800Y67347800D01*
X58602000Y92626900D02*
X59471800Y91757100D01*
X58602000Y95327000D02*
X58602000Y92626900D01*
X58361800Y52193800D02*
X59144100Y51411500D01*
X58361800Y59022500D02*
X58361800Y52193800D01*
X59423400Y60084100D02*
X58361800Y59022500D01*
%TO.N,/AD7*%
X61121000Y95327000D02*
X61121000Y92626900D01*
X60304500Y84207900D02*
X60266200Y84207900D01*
X60304500Y91810400D02*
X60304500Y84207900D01*
X61121000Y92626900D02*
X60304500Y91810400D01*
X60304500Y67349500D02*
X61139000Y66515000D01*
X60304500Y84207900D02*
X60304500Y67349500D01*
X61230000Y37184000D02*
X61230000Y42684100D01*
X60842100Y43072000D02*
X60842100Y48051300D01*
X61230000Y42684100D02*
X60842100Y43072000D01*
X61139000Y59386400D02*
X61139000Y66515000D01*
X58818100Y57065500D02*
X61139000Y59386400D01*
X58818100Y55630900D02*
X58818100Y57065500D01*
X60842100Y53606900D02*
X58818100Y55630900D01*
X60842100Y48051300D02*
X60842100Y53606900D01*
D15*
%TO.N,/VCC*%
X63748000Y37184000D02*
X63748000Y42809100D01*
X63639000Y95327000D02*
X63639000Y92342800D01*
X43573000Y37184000D02*
X43573000Y42809100D01*
X43411900Y42970200D02*
X43573000Y42809100D01*
X43365700Y42970200D02*
X43411900Y42970200D01*
X43335100Y43000800D02*
X43335100Y45897200D01*
X43365700Y42970200D02*
X43335100Y43000800D01*
X43639000Y73724000D02*
X43639000Y78715000D01*
X44534700Y78715000D02*
X44747900Y78501800D01*
X43639000Y78715000D02*
X44534700Y78715000D01*
X63748000Y42990100D02*
X63748000Y42809100D01*
X63748000Y45333500D02*
X63748000Y42990100D01*
X62470500Y46611000D02*
X63748000Y45333500D01*
X63639000Y66515000D02*
X63639000Y78715000D01*
X63639000Y78715000D02*
X62451200Y79902800D01*
X62389000Y79840600D02*
X62451200Y79902800D01*
X62055700Y90759500D02*
X63639000Y92342800D01*
X62055700Y80652400D02*
X62055700Y90759500D01*
X62451200Y80256900D02*
X62055700Y80652400D01*
X62451200Y79902800D02*
X62451200Y80256900D01*
X43382900Y78971100D02*
X43382900Y87698100D01*
X43639000Y78715000D02*
X43382900Y78971100D01*
X43464000Y95327000D02*
X43464000Y92501900D01*
X43382900Y87698100D02*
X43382900Y92335900D01*
X43382900Y92420800D02*
X43464000Y92501900D01*
X43382900Y92335900D02*
X43382900Y92420800D01*
X63639000Y65702600D02*
X63639000Y66515000D01*
X63658800Y65682800D02*
X63639000Y65702600D01*
D14*
X63738100Y65603400D02*
X63658800Y65682800D01*
X63738100Y64968400D02*
X63738100Y65603400D01*
D15*
X63026300Y64256600D02*
X63738100Y64968400D01*
X62935300Y64256600D02*
X63026300Y64256600D01*
X62935300Y47075800D02*
X62935300Y64256600D01*
X62470500Y46611000D02*
X62935300Y47075800D01*
X43639000Y73724000D02*
X43639000Y66515000D01*
X43639000Y49768100D02*
X43891300Y49768100D01*
X43639000Y66515000D02*
X43639000Y49768100D01*
X43639000Y46201100D02*
X43335100Y45897200D01*
X43639000Y49768100D02*
X43639000Y46201100D01*
X84378100Y58234600D02*
X84378100Y55000000D01*
X90533000Y64389500D02*
X84378100Y58234600D01*
X90533000Y66288800D02*
X90533000Y64389500D01*
D14*
%TO.N,/SST_Write*%
X68473400Y51538100D02*
X70746300Y53811000D01*
X68473400Y48992900D02*
X68473400Y51538100D01*
X69248200Y46579700D02*
X71665600Y44162300D01*
X69248200Y48218100D02*
X69248200Y46579700D01*
X68473400Y48992900D02*
X69248200Y48218100D01*
%TO.N,/A13*%
X80708200Y63260200D02*
X80708200Y64260700D01*
X80075800Y62627800D02*
X80708200Y63260200D01*
X80075800Y52101300D02*
X80075800Y62627800D01*
%TO.N,/A8*%
X65823500Y48234600D02*
X65823500Y45285100D01*
X64497400Y49560700D02*
X65823500Y48234600D01*
X64497400Y60012500D02*
X64497400Y49560700D01*
X77879700Y52367900D02*
X78164000Y52083600D01*
X77879700Y63729400D02*
X77879700Y52367900D01*
X78414300Y64264000D02*
X77879700Y63729400D01*
%TO.N,/A9*%
X72765200Y54987100D02*
X72856500Y54895800D01*
X72765200Y70142800D02*
X72765200Y54987100D01*
X73452000Y70829600D02*
X72765200Y70142800D01*
X73452000Y72499500D02*
X73452000Y70829600D01*
X72677600Y73273900D02*
X73452000Y72499500D01*
X72677600Y75398200D02*
X72677600Y73273900D01*
X72866800Y75587400D02*
X72677600Y75398200D01*
X72866800Y76879800D02*
X72866800Y75587400D01*
X72811800Y76934800D02*
X72866800Y76879800D01*
X72811800Y82254700D02*
X72811800Y76934800D01*
%TO.N,/A11*%
X76530600Y63873100D02*
X76161400Y64242300D01*
X76530600Y59147700D02*
X76530600Y63873100D01*
X75030400Y57647500D02*
X76530600Y59147700D01*
X75030400Y52052200D02*
X75030400Y57647500D01*
%TO.N,/Output_Enable*%
X74069800Y59065000D02*
X74069800Y52538200D01*
X73940500Y59194300D02*
X74069800Y59065000D01*
X73940500Y64252500D02*
X73940500Y59194300D01*
%TO.N,/A10*%
X37657000Y68245600D02*
X38672900Y69261500D01*
X37657000Y55551800D02*
X37657000Y68245600D01*
X37464700Y55359500D02*
X37657000Y55551800D01*
X64465200Y68483800D02*
X64717900Y68736500D01*
X64465200Y64732700D02*
X64465200Y68483800D01*
X63613800Y63881300D02*
X64465200Y64732700D01*
X63613800Y48163700D02*
X63613800Y63881300D01*
X64269400Y47508100D02*
X63613800Y48163700D01*
%TO.N,/Chip_Enable*%
X71471400Y52636500D02*
X70934200Y52099300D01*
X71471400Y62236100D02*
X71471400Y52636500D01*
X69560000Y64147500D02*
X71471400Y62236100D01*
X69560000Y68455800D02*
X69560000Y64147500D01*
X69326100Y68689700D02*
X69560000Y68455800D01*
X68884000Y68689700D02*
X69326100Y68689700D01*
X67767100Y69806600D02*
X68884000Y68689700D01*
X67767100Y82850700D02*
X67767100Y69806600D01*
X68130300Y83213900D02*
X67767100Y82850700D01*
X68130300Y86903400D02*
X68130300Y83213900D01*
%TO.N,/AD15*%
X73127700Y73849100D02*
X73415700Y73561100D01*
X73127700Y75211700D02*
X73127700Y73849100D01*
X74479200Y76563200D02*
X73127700Y75211700D01*
X74479200Y84568400D02*
X74479200Y76563200D01*
X72828100Y86219500D02*
X74479200Y84568400D01*
X28572100Y78781900D02*
X28572100Y92315800D01*
X28639000Y78715000D02*
X28572100Y78781900D01*
X28639000Y75440100D02*
X28639000Y78715000D01*
X29580200Y74498900D02*
X28639000Y75440100D01*
X29655600Y74498900D02*
X29580200Y74498900D01*
X29743200Y74586500D02*
X29655600Y74498900D01*
X29793000Y69066900D02*
X29793000Y45040600D01*
X29580200Y69279700D02*
X29793000Y69066900D01*
X29580200Y74498900D02*
X29580200Y69279700D01*
%TO.N,/AD14*%
X66315400Y84435000D02*
X65022300Y85728100D01*
X66315400Y83369000D02*
X66315400Y84435000D01*
X64465200Y81518800D02*
X66315400Y83369000D01*
X64465200Y73221400D02*
X64465200Y81518800D01*
X64339700Y73095900D02*
X64465200Y73221400D01*
X64339700Y72165100D02*
X64339700Y73095900D01*
X65532800Y70972000D02*
X64339700Y72165100D01*
X31139000Y91322100D02*
X31139000Y78715000D01*
X30349600Y92111500D02*
X31139000Y91322100D01*
X31139000Y77930900D02*
X32888000Y76181900D01*
X31139000Y78715000D02*
X31139000Y77930900D01*
X32025900Y43581700D02*
X31874800Y43430600D01*
X32025900Y75319800D02*
X32025900Y43581700D01*
X32888000Y76181900D02*
X32025900Y75319800D01*
%TO.N,/AD13*%
X33402000Y78952000D02*
X33639000Y78715000D01*
X33402000Y92314300D02*
X33402000Y78952000D01*
X33770300Y78583700D02*
X33770300Y72348000D01*
X33639000Y78715000D02*
X33770300Y78583700D01*
X32790700Y71368400D02*
X33770300Y72348000D01*
X32790700Y45034500D02*
X32790700Y71368400D01*
X33096200Y44729000D02*
X32790700Y45034500D01*
%TO.N,/AD12*%
X39071900Y71406000D02*
X39015000Y71406000D01*
X39015000Y78339000D02*
X38639000Y78715000D01*
X39015000Y71406000D02*
X39015000Y78339000D01*
X37206900Y69597900D02*
X39015000Y71406000D01*
X37206900Y61035800D02*
X37206900Y69597900D01*
X36739600Y60568500D02*
X37206900Y61035800D01*
X36739600Y43469000D02*
X36739600Y60568500D01*
X37358100Y42850500D02*
X36739600Y43469000D01*
X37784000Y91385200D02*
X37784000Y79570000D01*
X37807100Y91408300D02*
X37784000Y91385200D01*
X38639000Y78715000D02*
X37784000Y79570000D01*
X37380100Y79570000D02*
X37378200Y79568100D01*
X37784000Y79570000D02*
X37380100Y79570000D01*
%TO.N,/AD11*%
X48639000Y78715000D02*
X48757600Y78715000D01*
X49497700Y77974900D02*
X48757600Y78715000D01*
X49497700Y62377600D02*
X49497700Y77974900D01*
X48757600Y91831600D02*
X48876200Y91950200D01*
X48757600Y78715000D02*
X48757600Y91831600D01*
X64370400Y62940200D02*
X64370400Y62157800D01*
X64915400Y63485200D02*
X64370400Y62940200D01*
X64915400Y67756100D02*
X64915400Y63485200D01*
X66279200Y69119900D02*
X64915400Y67756100D01*
X66279200Y74117700D02*
X66279200Y69119900D01*
X66141700Y74255200D02*
X66279200Y74117700D01*
X49659200Y62216100D02*
X49497700Y62377600D01*
X49659200Y43225200D02*
X49659200Y62216100D01*
X49424400Y42990400D02*
X49659200Y43225200D01*
D15*
%TO.N,/GND*%
X25922000Y37184000D02*
X25922000Y39996600D01*
X23404000Y37184000D02*
X23404000Y42809100D01*
X36012000Y37184000D02*
X36012000Y42809100D01*
X35849100Y42972000D02*
X35849100Y43009300D01*
X36012000Y42809100D02*
X35849100Y42972000D01*
X76355000Y37184000D02*
X76355000Y42809100D01*
X78885000Y37184000D02*
X78885000Y42809100D01*
X25813000Y95327000D02*
X23295000Y95327000D01*
X83930000Y37184000D02*
X83930000Y42809100D01*
X83844600Y42809100D02*
X83629000Y43024700D01*
X83930000Y42809100D02*
X83844600Y42809100D01*
X83088200Y43024700D02*
X82171300Y43941600D01*
X83629000Y43024700D02*
X83088200Y43024700D01*
X78885000Y42809100D02*
X79073000Y42997100D01*
X78776000Y95327000D02*
X78086700Y95327000D01*
X78086700Y95327000D02*
X76246000Y95327000D01*
X26323500Y66699500D02*
X26323500Y68944500D01*
X26139000Y66515000D02*
X26323500Y66699500D01*
X26323500Y78530500D02*
X26139000Y78715000D01*
X26323500Y68944500D02*
X26323500Y78530500D01*
X78086700Y95327000D02*
X78086700Y92310900D01*
X83639000Y65495200D02*
X86565300Y62568900D01*
X83639000Y66515000D02*
X83639000Y65495200D01*
X82578800Y58582400D02*
X86565300Y62568900D01*
X82578800Y44349100D02*
X82578800Y58582400D01*
X82171300Y43941600D02*
X82578800Y44349100D01*
X25922000Y42510300D02*
X25623200Y42809100D01*
X25922000Y39996600D02*
X25922000Y42510300D01*
X25623200Y42809100D02*
X23404000Y42809100D01*
X25623200Y45411700D02*
X25922000Y45710500D01*
X25623200Y42809100D02*
X25623200Y45411700D01*
X25922000Y66298000D02*
X25922000Y45710500D01*
X23856000Y66298000D02*
X25922000Y66298000D01*
X23639000Y66515000D02*
X23856000Y66298000D01*
X25922000Y66298000D02*
X26139000Y66515000D01*
X37625700Y75133100D02*
X38253500Y75133100D01*
X78885000Y42809100D02*
X76963300Y42809100D01*
X76963300Y42809100D02*
X76355000Y42809100D01*
X25813000Y95327000D02*
X25813000Y92501900D01*
X25813000Y78715000D02*
X25813000Y92501900D01*
X26139000Y78715000D02*
X25813000Y78715000D01*
X25813000Y78715000D02*
X23639000Y78715000D01*
X83821000Y78897000D02*
X83821000Y91972200D01*
X83639000Y78715000D02*
X83821000Y78897000D01*
X83821000Y91972200D02*
X83821000Y95327000D01*
X77175800Y91400000D02*
X78086700Y92310900D01*
X77175800Y78715000D02*
X77175800Y91400000D01*
X78639000Y78715000D02*
X77175800Y78715000D01*
X77175800Y78715000D02*
X76139000Y78715000D01*
X83639000Y66515000D02*
X83639000Y78715000D01*
X36631800Y66022200D02*
X36139000Y66515000D01*
X36631800Y61274100D02*
X36631800Y66022200D01*
X36146900Y60789200D02*
X36631800Y61274100D01*
X36146900Y43307100D02*
X36146900Y60789200D01*
X35849100Y43009300D02*
X36146900Y43307100D01*
X76139000Y75164100D02*
X75699800Y74724900D01*
X76139000Y78715000D02*
X76139000Y75164100D01*
X76645300Y73779400D02*
X75699800Y74724900D01*
X76645300Y71800300D02*
X76645300Y73779400D01*
X76139000Y71294000D02*
X76645300Y71800300D01*
X76139000Y66515000D02*
X76139000Y71294000D01*
X75699800Y74724900D02*
X74302900Y74724900D01*
X36139000Y73646400D02*
X37625700Y75133100D01*
X36139000Y66515000D02*
X36139000Y73646400D01*
X35903000Y95327000D02*
X35903000Y92501900D01*
X37625700Y77228300D02*
X36139000Y78715000D01*
X37625700Y75133100D02*
X37625700Y77228300D01*
X36139000Y78715000D02*
X36139000Y91914900D01*
X36139000Y92265900D02*
X35903000Y92501900D01*
X36139000Y91914900D02*
X36139000Y92265900D01*
X76963300Y57330100D02*
X76647600Y57645800D01*
X76963300Y42809100D02*
X76963300Y57330100D01*
X77619900Y65495900D02*
X78639000Y66515000D01*
X77158100Y65495900D02*
X77619900Y65495900D01*
X77158100Y58156300D02*
X77158100Y65495900D01*
X76647600Y57645800D02*
X77158100Y58156300D01*
X77158100Y65495900D02*
X76139000Y66515000D01*
D14*
%TO.N,/AD10*%
X50304000Y43391900D02*
X50546900Y43149000D01*
X50304000Y77880000D02*
X50304000Y43391900D01*
X51139000Y78715000D02*
X50304000Y77880000D01*
X51139000Y80830300D02*
X52007200Y80830300D01*
X51139000Y88766600D02*
X51139000Y80830300D01*
X49485600Y90420000D02*
X51139000Y88766600D01*
X51139000Y80830300D02*
X51139000Y78715000D01*
%TO.N,/AD9*%
X58639000Y91511600D02*
X58639000Y78715000D01*
X58379600Y91771000D02*
X58639000Y91511600D01*
X58639000Y78715000D02*
X58639000Y74218000D01*
X58639000Y69138300D02*
X57519700Y68019000D01*
X58639000Y74218000D02*
X58639000Y69138300D01*
X57519700Y42783200D02*
X57516400Y42779900D01*
X57519700Y68019000D02*
X57519700Y42783200D01*
%TO.N,/AD8*%
X61057300Y78796700D02*
X61057300Y91527600D01*
X61139000Y78715000D02*
X61057300Y78796700D01*
X61739400Y43248700D02*
X61739400Y56558700D01*
X61916700Y43071400D02*
X61739400Y43248700D01*
X59572500Y56558700D02*
X61739400Y56558700D01*
X62314600Y76912000D02*
X61977200Y76912000D01*
X61977200Y56796500D02*
X61977200Y76912000D01*
X61739400Y56558700D02*
X61977200Y56796500D01*
X61977200Y77876800D02*
X61139000Y78715000D01*
X61977200Y76912000D02*
X61977200Y77876800D01*
%TO.N,/A0*%
X70285200Y74994700D02*
X71685700Y76395200D01*
X70285200Y64505000D02*
X70285200Y74994700D01*
%TO.N,/A1*%
X72030100Y72809200D02*
X72056900Y72836000D01*
X72030100Y64016000D02*
X72030100Y72809200D01*
%TO.N,/A2*%
X74676100Y72601900D02*
X75648300Y73574100D01*
X74676100Y59998100D02*
X74676100Y72601900D01*
%TO.N,/A3*%
X68855400Y81956800D02*
X68493400Y81594800D01*
X68855400Y87203800D02*
X68855400Y81956800D01*
X68493400Y87565800D02*
X68855400Y87203800D01*
X68493400Y90966800D02*
X68493400Y87565800D01*
X68894000Y91367400D02*
X68493400Y90966800D01*
X69507800Y91367400D02*
X68894000Y91367400D01*
X70171800Y90703400D02*
X69507800Y91367400D01*
X70171800Y83967400D02*
X70171800Y90703400D01*
X75282400Y71639700D02*
X75795200Y72152500D01*
X75282400Y60551800D02*
X75282400Y71639700D01*
X75805500Y60028700D02*
X75282400Y60551800D01*
%TO.N,/A4*%
X62918200Y80997300D02*
X65590200Y83669300D01*
X62918200Y80992300D02*
X62918200Y80997300D01*
X79465200Y73793800D02*
X78081900Y75177100D01*
X79465200Y64198000D02*
X79465200Y73793800D01*
X78604800Y63337600D02*
X79465200Y64198000D01*
X78604800Y59639600D02*
X78604800Y63337600D01*
%TO.N,/A5*%
X77351900Y75771800D02*
X77351900Y66631000D01*
X78028300Y76448200D02*
X77351900Y75771800D01*
%TO.N,/A6*%
X70373900Y62086800D02*
X68758100Y63702600D01*
X70373900Y56512400D02*
X70373900Y62086800D01*
X79946700Y75601900D02*
X79946700Y63524200D01*
X79474000Y76074600D02*
X79946700Y75601900D01*
%TO.N,/A7*%
X65197000Y72602200D02*
X65091000Y72496200D01*
X65197100Y72602200D02*
X65197000Y72602200D01*
X65197100Y80239600D02*
X65197100Y72602200D01*
X66780800Y81823300D02*
X65197100Y80239600D01*
X66780800Y85444100D02*
X66780800Y81823300D01*
X82812900Y80956200D02*
X82884200Y81027500D01*
X82812900Y70472900D02*
X82812900Y80956200D01*
X83028900Y70256900D02*
X82812900Y70472900D01*
X83028900Y68563100D02*
X83028900Y70256900D01*
X82158700Y67692900D02*
X83028900Y68563100D01*
X82158700Y63231100D02*
X82158700Y67692900D01*
%TO.N,/A12*%
X76113200Y49726600D02*
X74324200Y47937600D01*
X76113200Y55985300D02*
X76113200Y49726600D01*
X84743100Y78591000D02*
X84743100Y65778500D01*
%TO.N,/A15*%
X55290600Y82793400D02*
X55752400Y83255200D01*
X55290600Y59650000D02*
X55290600Y82793400D01*
X55104300Y59463700D02*
X55290600Y59650000D01*
X80289800Y79983900D02*
X80289800Y76693100D01*
X78052300Y82221400D02*
X80289800Y79983900D01*
X81076800Y69723700D02*
X81748300Y69052200D01*
X81076800Y75906100D02*
X81076800Y69723700D01*
X80289800Y76693100D02*
X81076800Y75906100D01*
%TO.N,/A16*%
X70311800Y55510500D02*
X70385500Y55510500D01*
X69054800Y56767500D02*
X70311800Y55510500D01*
X69054800Y60914100D02*
X69054800Y56767500D01*
X85845000Y64808100D02*
X85710100Y64673200D01*
X85845000Y75552400D02*
X85845000Y64808100D01*
%TD*%
M02*
