%TF.GenerationSoftware,KiCad,Pcbnew,(6.0.2)*%
%TF.CreationDate,2022-10-24T07:01:04-05:00*%
%TF.ProjectId,N64NP6,4e36344e-5036-42e6-9b69-6361645f7063,rev?*%
%TF.SameCoordinates,Original*%
%TF.FileFunction,Legend,Top*%
%TF.FilePolarity,Positive*%
%FSLAX46Y46*%
G04 Gerber Fmt 4.6, Leading zero omitted, Abs format (unit mm)*
G04 Created by KiCad (PCBNEW (6.0.2)) date 2022-10-24 07:01:04*
%MOMM*%
%LPD*%
G01*
G04 APERTURE LIST*
%ADD10C,0.150000*%
%ADD11C,0.125000*%
%ADD12C,0.200000*%
%ADD13C,0.635000*%
G04 APERTURE END LIST*
D10*
X92927047Y67767571D02*
X93688952Y67767571D01*
X93308000Y67386619D02*
X93308000Y68148523D01*
X28226047Y55143571D02*
X28987952Y55143571D01*
X28607000Y54762619D02*
X28607000Y55524523D01*
X23074047Y72190571D02*
X23835952Y72190571D01*
X23455000Y71809619D02*
X23455000Y72571523D01*
X17026761Y81772619D02*
X16455333Y81772619D01*
X16741047Y81772619D02*
X16741047Y82772619D01*
X16645809Y82629761D01*
X16550571Y82534523D01*
X16455333Y82486904D01*
X17883904Y82772619D02*
X17693428Y82772619D01*
X17598190Y82725000D01*
X17550571Y82677380D01*
X17455333Y82534523D01*
X17407714Y82344047D01*
X17407714Y81963095D01*
X17455333Y81867857D01*
X17502952Y81820238D01*
X17598190Y81772619D01*
X17788666Y81772619D01*
X17883904Y81820238D01*
X17931523Y81867857D01*
X17979142Y81963095D01*
X17979142Y82201190D01*
X17931523Y82296428D01*
X17883904Y82344047D01*
X17788666Y82391666D01*
X17598190Y82391666D01*
X17502952Y82344047D01*
X17455333Y82296428D01*
X17407714Y82201190D01*
X18264857Y82772619D02*
X18598190Y81772619D01*
X18931523Y82772619D01*
X19407714Y82344047D02*
X19312476Y82391666D01*
X19264857Y82439285D01*
X19217238Y82534523D01*
X19217238Y82582142D01*
X19264857Y82677380D01*
X19312476Y82725000D01*
X19407714Y82772619D01*
X19598190Y82772619D01*
X19693428Y82725000D01*
X19741047Y82677380D01*
X19788666Y82582142D01*
X19788666Y82534523D01*
X19741047Y82439285D01*
X19693428Y82391666D01*
X19598190Y82344047D01*
X19407714Y82344047D01*
X19312476Y82296428D01*
X19264857Y82248809D01*
X19217238Y82153571D01*
X19217238Y81963095D01*
X19264857Y81867857D01*
X19312476Y81820238D01*
X19407714Y81772619D01*
X19598190Y81772619D01*
X19693428Y81820238D01*
X19741047Y81867857D01*
X19788666Y81963095D01*
X19788666Y82153571D01*
X19741047Y82248809D01*
X19693428Y82296428D01*
X19598190Y82344047D01*
X44431571Y64818428D02*
X44764904Y64818428D01*
X44907761Y64294619D02*
X44431571Y64294619D01*
X44431571Y65294619D01*
X44907761Y65294619D01*
X45336333Y64294619D02*
X45336333Y65294619D01*
X45669666Y64580333D01*
X46003000Y65294619D01*
X46003000Y64294619D01*
X46431571Y64342238D02*
X46574428Y64294619D01*
X46812523Y64294619D01*
X46907761Y64342238D01*
X46955380Y64389857D01*
X47003000Y64485095D01*
X47003000Y64580333D01*
X46955380Y64675571D01*
X46907761Y64723190D01*
X46812523Y64770809D01*
X46622047Y64818428D01*
X46526809Y64866047D01*
X46479190Y64913666D01*
X46431571Y65008904D01*
X46431571Y65104142D01*
X46479190Y65199380D01*
X46526809Y65247000D01*
X46622047Y65294619D01*
X46860142Y65294619D01*
X47003000Y65247000D01*
X47383952Y64580333D02*
X47860142Y64580333D01*
X47288714Y64294619D02*
X47622047Y65294619D01*
X47955380Y64294619D01*
X48860142Y64389857D02*
X48812523Y64342238D01*
X48669666Y64294619D01*
X48574428Y64294619D01*
X48431571Y64342238D01*
X48336333Y64437476D01*
X48288714Y64532714D01*
X48241095Y64723190D01*
X48241095Y64866047D01*
X48288714Y65056523D01*
X48336333Y65151761D01*
X48431571Y65247000D01*
X48574428Y65294619D01*
X48669666Y65294619D01*
X48812523Y65247000D01*
X48860142Y65199380D01*
X49145857Y65294619D02*
X49717285Y65294619D01*
X49431571Y64294619D02*
X49431571Y65294619D01*
X46605000Y73383285D02*
X46605000Y74811857D01*
X46890714Y72106619D02*
X46319285Y72106619D01*
X46605000Y72106619D02*
X46605000Y73106619D01*
X46509761Y72963761D01*
X46414523Y72868523D01*
X46319285Y72820904D01*
D11*
X79995690Y74847357D02*
X79995690Y74561642D01*
X79995690Y74704500D02*
X79495690Y74704500D01*
X79567119Y74656880D01*
X79614738Y74609261D01*
X79638547Y74561642D01*
X80967357Y74704500D02*
X80253071Y74704500D01*
X79995690Y56185357D02*
X79995690Y55899642D01*
X79995690Y56042500D02*
X79495690Y56042500D01*
X79567119Y55994880D01*
X79614738Y55947261D01*
X79638547Y55899642D01*
X80967357Y56042500D02*
X80253071Y56042500D01*
X75957619Y56408928D02*
X75933809Y56337500D01*
X75933809Y56218452D01*
X75957619Y56170833D01*
X75981428Y56147023D01*
X76029047Y56123214D01*
X76076666Y56123214D01*
X76124285Y56147023D01*
X76148095Y56170833D01*
X76171904Y56218452D01*
X76195714Y56313690D01*
X76219523Y56361309D01*
X76243333Y56385119D01*
X76290952Y56408928D01*
X76338571Y56408928D01*
X76386190Y56385119D01*
X76410000Y56361309D01*
X76433809Y56313690D01*
X76433809Y56194642D01*
X76410000Y56123214D01*
X75957619Y55932738D02*
X75933809Y55861309D01*
X75933809Y55742261D01*
X75957619Y55694642D01*
X75981428Y55670833D01*
X76029047Y55647023D01*
X76076666Y55647023D01*
X76124285Y55670833D01*
X76148095Y55694642D01*
X76171904Y55742261D01*
X76195714Y55837500D01*
X76219523Y55885119D01*
X76243333Y55908928D01*
X76290952Y55932738D01*
X76338571Y55932738D01*
X76386190Y55908928D01*
X76410000Y55885119D01*
X76433809Y55837500D01*
X76433809Y55718452D01*
X76410000Y55647023D01*
X76433809Y55504166D02*
X76433809Y55218452D01*
X75933809Y55361309D02*
X76433809Y55361309D01*
X75581190Y57349404D02*
X75605000Y57325595D01*
X75628809Y57277976D01*
X75628809Y57158928D01*
X75605000Y57111309D01*
X75581190Y57087500D01*
X75533571Y57063690D01*
X75485952Y57063690D01*
X75414523Y57087500D01*
X75128809Y57373214D01*
X75128809Y57063690D01*
X75414523Y56777976D02*
X75438333Y56825595D01*
X75462142Y56849404D01*
X75509761Y56873214D01*
X75533571Y56873214D01*
X75581190Y56849404D01*
X75605000Y56825595D01*
X75628809Y56777976D01*
X75628809Y56682738D01*
X75605000Y56635119D01*
X75581190Y56611309D01*
X75533571Y56587500D01*
X75509761Y56587500D01*
X75462142Y56611309D01*
X75438333Y56635119D01*
X75414523Y56682738D01*
X75414523Y56777976D01*
X75390714Y56825595D01*
X75366904Y56849404D01*
X75319285Y56873214D01*
X75224047Y56873214D01*
X75176428Y56849404D01*
X75152619Y56825595D01*
X75128809Y56777976D01*
X75128809Y56682738D01*
X75152619Y56635119D01*
X75176428Y56611309D01*
X75224047Y56587500D01*
X75319285Y56587500D01*
X75366904Y56611309D01*
X75390714Y56635119D01*
X75414523Y56682738D01*
X75128809Y56135119D02*
X75128809Y56373214D01*
X75628809Y56373214D01*
X75390714Y55801785D02*
X75390714Y55968452D01*
X75128809Y55968452D02*
X75628809Y55968452D01*
X75628809Y55730357D01*
X75628809Y55444642D02*
X75628809Y55397023D01*
X75605000Y55349404D01*
X75581190Y55325595D01*
X75533571Y55301785D01*
X75438333Y55277976D01*
X75319285Y55277976D01*
X75224047Y55301785D01*
X75176428Y55325595D01*
X75152619Y55349404D01*
X75128809Y55397023D01*
X75128809Y55444642D01*
X75152619Y55492261D01*
X75176428Y55516071D01*
X75224047Y55539880D01*
X75319285Y55563690D01*
X75438333Y55563690D01*
X75533571Y55539880D01*
X75581190Y55516071D01*
X75605000Y55492261D01*
X75628809Y55444642D01*
X75462142Y54849404D02*
X75128809Y54849404D01*
X75652619Y54968452D02*
X75295476Y55087500D01*
X75295476Y54777976D01*
X75628809Y54492261D02*
X75628809Y54444642D01*
X75605000Y54397023D01*
X75581190Y54373214D01*
X75533571Y54349404D01*
X75438333Y54325595D01*
X75319285Y54325595D01*
X75224047Y54349404D01*
X75176428Y54373214D01*
X75152619Y54397023D01*
X75128809Y54444642D01*
X75128809Y54492261D01*
X75152619Y54539880D01*
X75176428Y54563690D01*
X75224047Y54587500D01*
X75319285Y54611309D01*
X75438333Y54611309D01*
X75533571Y54587500D01*
X75581190Y54563690D01*
X75605000Y54539880D01*
X75628809Y54492261D01*
X74776190Y57361309D02*
X74800000Y57337500D01*
X74823809Y57289880D01*
X74823809Y57170833D01*
X74800000Y57123214D01*
X74776190Y57099404D01*
X74728571Y57075595D01*
X74680952Y57075595D01*
X74609523Y57099404D01*
X74323809Y57385119D01*
X74323809Y57075595D01*
X74323809Y56837500D02*
X74323809Y56742261D01*
X74347619Y56694642D01*
X74371428Y56670833D01*
X74442857Y56623214D01*
X74538095Y56599404D01*
X74728571Y56599404D01*
X74776190Y56623214D01*
X74800000Y56647023D01*
X74823809Y56694642D01*
X74823809Y56789880D01*
X74800000Y56837500D01*
X74776190Y56861309D01*
X74728571Y56885119D01*
X74609523Y56885119D01*
X74561904Y56861309D01*
X74538095Y56837500D01*
X74514285Y56789880D01*
X74514285Y56694642D01*
X74538095Y56647023D01*
X74561904Y56623214D01*
X74609523Y56599404D01*
X74323809Y56147023D02*
X74323809Y56385119D01*
X74823809Y56385119D01*
X74585714Y55980357D02*
X74585714Y55813690D01*
X74323809Y55742261D02*
X74323809Y55980357D01*
X74823809Y55980357D01*
X74823809Y55742261D01*
X74823809Y55432738D02*
X74823809Y55385119D01*
X74800000Y55337500D01*
X74776190Y55313690D01*
X74728571Y55289880D01*
X74633333Y55266071D01*
X74514285Y55266071D01*
X74419047Y55289880D01*
X74371428Y55313690D01*
X74347619Y55337500D01*
X74323809Y55385119D01*
X74323809Y55432738D01*
X74347619Y55480357D01*
X74371428Y55504166D01*
X74419047Y55527976D01*
X74514285Y55551785D01*
X74633333Y55551785D01*
X74728571Y55527976D01*
X74776190Y55504166D01*
X74800000Y55480357D01*
X74823809Y55432738D01*
X74323809Y54789880D02*
X74323809Y55075595D01*
X74323809Y54932738D02*
X74823809Y54932738D01*
X74752380Y54980357D01*
X74704761Y55027976D01*
X74680952Y55075595D01*
X74823809Y54480357D02*
X74823809Y54432738D01*
X74800000Y54385119D01*
X74776190Y54361309D01*
X74728571Y54337500D01*
X74633333Y54313690D01*
X74514285Y54313690D01*
X74419047Y54337500D01*
X74371428Y54361309D01*
X74347619Y54385119D01*
X74323809Y54432738D01*
X74323809Y54480357D01*
X74347619Y54527976D01*
X74371428Y54551785D01*
X74419047Y54575595D01*
X74514285Y54599404D01*
X74633333Y54599404D01*
X74728571Y54575595D01*
X74776190Y54551785D01*
X74800000Y54527976D01*
X74823809Y54480357D01*
X75957619Y75371928D02*
X75933809Y75300500D01*
X75933809Y75181452D01*
X75957619Y75133833D01*
X75981428Y75110023D01*
X76029047Y75086214D01*
X76076666Y75086214D01*
X76124285Y75110023D01*
X76148095Y75133833D01*
X76171904Y75181452D01*
X76195714Y75276690D01*
X76219523Y75324309D01*
X76243333Y75348119D01*
X76290952Y75371928D01*
X76338571Y75371928D01*
X76386190Y75348119D01*
X76410000Y75324309D01*
X76433809Y75276690D01*
X76433809Y75157642D01*
X76410000Y75086214D01*
X75957619Y74895738D02*
X75933809Y74824309D01*
X75933809Y74705261D01*
X75957619Y74657642D01*
X75981428Y74633833D01*
X76029047Y74610023D01*
X76076666Y74610023D01*
X76124285Y74633833D01*
X76148095Y74657642D01*
X76171904Y74705261D01*
X76195714Y74800500D01*
X76219523Y74848119D01*
X76243333Y74871928D01*
X76290952Y74895738D01*
X76338571Y74895738D01*
X76386190Y74871928D01*
X76410000Y74848119D01*
X76433809Y74800500D01*
X76433809Y74681452D01*
X76410000Y74610023D01*
X76433809Y74467166D02*
X76433809Y74181452D01*
X75933809Y74324309D02*
X76433809Y74324309D01*
X75581190Y76312404D02*
X75605000Y76288595D01*
X75628809Y76240976D01*
X75628809Y76121928D01*
X75605000Y76074309D01*
X75581190Y76050500D01*
X75533571Y76026690D01*
X75485952Y76026690D01*
X75414523Y76050500D01*
X75128809Y76336214D01*
X75128809Y76026690D01*
X75414523Y75740976D02*
X75438333Y75788595D01*
X75462142Y75812404D01*
X75509761Y75836214D01*
X75533571Y75836214D01*
X75581190Y75812404D01*
X75605000Y75788595D01*
X75628809Y75740976D01*
X75628809Y75645738D01*
X75605000Y75598119D01*
X75581190Y75574309D01*
X75533571Y75550500D01*
X75509761Y75550500D01*
X75462142Y75574309D01*
X75438333Y75598119D01*
X75414523Y75645738D01*
X75414523Y75740976D01*
X75390714Y75788595D01*
X75366904Y75812404D01*
X75319285Y75836214D01*
X75224047Y75836214D01*
X75176428Y75812404D01*
X75152619Y75788595D01*
X75128809Y75740976D01*
X75128809Y75645738D01*
X75152619Y75598119D01*
X75176428Y75574309D01*
X75224047Y75550500D01*
X75319285Y75550500D01*
X75366904Y75574309D01*
X75390714Y75598119D01*
X75414523Y75645738D01*
X75128809Y75098119D02*
X75128809Y75336214D01*
X75628809Y75336214D01*
X75390714Y74764785D02*
X75390714Y74931452D01*
X75128809Y74931452D02*
X75628809Y74931452D01*
X75628809Y74693357D01*
X75628809Y74407642D02*
X75628809Y74360023D01*
X75605000Y74312404D01*
X75581190Y74288595D01*
X75533571Y74264785D01*
X75438333Y74240976D01*
X75319285Y74240976D01*
X75224047Y74264785D01*
X75176428Y74288595D01*
X75152619Y74312404D01*
X75128809Y74360023D01*
X75128809Y74407642D01*
X75152619Y74455261D01*
X75176428Y74479071D01*
X75224047Y74502880D01*
X75319285Y74526690D01*
X75438333Y74526690D01*
X75533571Y74502880D01*
X75581190Y74479071D01*
X75605000Y74455261D01*
X75628809Y74407642D01*
X75462142Y73812404D02*
X75128809Y73812404D01*
X75652619Y73931452D02*
X75295476Y74050500D01*
X75295476Y73740976D01*
X75628809Y73455261D02*
X75628809Y73407642D01*
X75605000Y73360023D01*
X75581190Y73336214D01*
X75533571Y73312404D01*
X75438333Y73288595D01*
X75319285Y73288595D01*
X75224047Y73312404D01*
X75176428Y73336214D01*
X75152619Y73360023D01*
X75128809Y73407642D01*
X75128809Y73455261D01*
X75152619Y73502880D01*
X75176428Y73526690D01*
X75224047Y73550500D01*
X75319285Y73574309D01*
X75438333Y73574309D01*
X75533571Y73550500D01*
X75581190Y73526690D01*
X75605000Y73502880D01*
X75628809Y73455261D01*
X74776190Y76324309D02*
X74800000Y76300500D01*
X74823809Y76252880D01*
X74823809Y76133833D01*
X74800000Y76086214D01*
X74776190Y76062404D01*
X74728571Y76038595D01*
X74680952Y76038595D01*
X74609523Y76062404D01*
X74323809Y76348119D01*
X74323809Y76038595D01*
X74323809Y75800500D02*
X74323809Y75705261D01*
X74347619Y75657642D01*
X74371428Y75633833D01*
X74442857Y75586214D01*
X74538095Y75562404D01*
X74728571Y75562404D01*
X74776190Y75586214D01*
X74800000Y75610023D01*
X74823809Y75657642D01*
X74823809Y75752880D01*
X74800000Y75800500D01*
X74776190Y75824309D01*
X74728571Y75848119D01*
X74609523Y75848119D01*
X74561904Y75824309D01*
X74538095Y75800500D01*
X74514285Y75752880D01*
X74514285Y75657642D01*
X74538095Y75610023D01*
X74561904Y75586214D01*
X74609523Y75562404D01*
X74323809Y75110023D02*
X74323809Y75348119D01*
X74823809Y75348119D01*
X74585714Y74943357D02*
X74585714Y74776690D01*
X74323809Y74705261D02*
X74323809Y74943357D01*
X74823809Y74943357D01*
X74823809Y74705261D01*
X74823809Y74395738D02*
X74823809Y74348119D01*
X74800000Y74300500D01*
X74776190Y74276690D01*
X74728571Y74252880D01*
X74633333Y74229071D01*
X74514285Y74229071D01*
X74419047Y74252880D01*
X74371428Y74276690D01*
X74347619Y74300500D01*
X74323809Y74348119D01*
X74323809Y74395738D01*
X74347619Y74443357D01*
X74371428Y74467166D01*
X74419047Y74490976D01*
X74514285Y74514785D01*
X74633333Y74514785D01*
X74728571Y74490976D01*
X74776190Y74467166D01*
X74800000Y74443357D01*
X74823809Y74395738D01*
X74323809Y73752880D02*
X74323809Y74038595D01*
X74323809Y73895738D02*
X74823809Y73895738D01*
X74752380Y73943357D01*
X74704761Y73990976D01*
X74680952Y74038595D01*
X74823809Y73443357D02*
X74823809Y73395738D01*
X74800000Y73348119D01*
X74776190Y73324309D01*
X74728571Y73300500D01*
X74633333Y73276690D01*
X74514285Y73276690D01*
X74419047Y73300500D01*
X74371428Y73324309D01*
X74347619Y73348119D01*
X74323809Y73395738D01*
X74323809Y73443357D01*
X74347619Y73490976D01*
X74371428Y73514785D01*
X74419047Y73538595D01*
X74514285Y73562404D01*
X74633333Y73562404D01*
X74728571Y73538595D01*
X74776190Y73514785D01*
X74800000Y73490976D01*
X74823809Y73443357D01*
D12*
%TO.C,U1*%
X15573000Y84744000D02*
X20715000Y84744000D01*
X15573000Y79602000D02*
X15573000Y84744000D01*
X20715000Y79602000D02*
X15573000Y79602000D01*
X20715000Y84744000D02*
X20715000Y79602000D01*
D13*
X18461500Y88132500D02*
G75*
G03*
X18461500Y88132500I-317500J0D01*
G01*
%TD*%
M02*
