%TF.GenerationSoftware,KiCad,Pcbnew,(6.0.2)*%
%TF.CreationDate,2022-10-24T07:01:04-05:00*%
%TF.ProjectId,N64NP6,4e36344e-5036-42e6-9b69-6361645f7063,rev?*%
%TF.SameCoordinates,Original*%
%TF.FileFunction,Copper,L1,Top*%
%TF.FilePolarity,Positive*%
%FSLAX46Y46*%
G04 Gerber Fmt 4.6, Leading zero omitted, Abs format (unit mm)*
G04 Created by KiCad (PCBNEW (6.0.2)) date 2022-10-24 07:01:04*
%MOMM*%
%LPD*%
G01*
G04 APERTURE LIST*
G04 Aperture macros list*
%AMRoundRect*
0 Rectangle with rounded corners*
0 $1 Rounding radius*
0 $2 $3 $4 $5 $6 $7 $8 $9 X,Y pos of 4 corners*
0 Add a 4 corners polygon primitive as box body*
4,1,4,$2,$3,$4,$5,$6,$7,$8,$9,$2,$3,0*
0 Add four circle primitives for the rounded corners*
1,1,$1+$1,$2,$3*
1,1,$1+$1,$4,$5*
1,1,$1+$1,$6,$7*
1,1,$1+$1,$8,$9*
0 Add four rect primitives between the rounded corners*
20,1,$1+$1,$2,$3,$4,$5,0*
20,1,$1+$1,$4,$5,$6,$7,0*
20,1,$1+$1,$6,$7,$8,$9,0*
20,1,$1+$1,$8,$9,$2,$3,0*%
G04 Aperture macros list end*
%ADD10C,0.300000*%
%TA.AperFunction,NonConductor*%
%ADD11C,0.300000*%
%TD*%
%TA.AperFunction,SMDPad,CuDef*%
%ADD12R,3.250000X1.700000*%
%TD*%
%TA.AperFunction,SMDPad,CuDef*%
%ADD13R,2.270000X0.700000*%
%TD*%
%TA.AperFunction,SMDPad,CuDef*%
%ADD14R,0.700000X2.270000*%
%TD*%
%TA.AperFunction,SMDPad,CuDef*%
%ADD15O,0.700000X2.154000*%
%TD*%
%TA.AperFunction,SMDPad,CuDef*%
%ADD16O,2.154000X0.700000*%
%TD*%
%TA.AperFunction,SMDPad,CuDef*%
%ADD17RoundRect,0.150000X-0.150000X-1.000000X0.150000X-1.000000X0.150000X1.000000X-0.150000X1.000000X0*%
%TD*%
%TA.AperFunction,SMDPad,CuDef*%
%ADD18RoundRect,0.150000X-1.000000X-0.150000X1.000000X-0.150000X1.000000X0.150000X-1.000000X0.150000X0*%
%TD*%
%TA.AperFunction,SMDPad,CuDef*%
%ADD19R,1.500000X10.350000*%
%TD*%
%TA.AperFunction,SMDPad,CuDef*%
%ADD20R,1.350000X4.750000*%
%TD*%
%TA.AperFunction,ViaPad*%
%ADD21C,0.800000*%
%TD*%
%TA.AperFunction,Conductor*%
%ADD22C,0.250000*%
%TD*%
%TA.AperFunction,Conductor*%
%ADD23C,0.500000*%
%TD*%
%TA.AperFunction,Conductor*%
%ADD24C,0.600000*%
%TD*%
G04 APERTURE END LIST*
D10*
D11*
X3950809Y94410238D02*
X3950809Y96410238D01*
X5093666Y94410238D01*
X5093666Y96410238D01*
X6903190Y96410238D02*
X6522238Y96410238D01*
X6331761Y96315000D01*
X6236523Y96219761D01*
X6046047Y95934047D01*
X5950809Y95553095D01*
X5950809Y94791190D01*
X6046047Y94600714D01*
X6141285Y94505476D01*
X6331761Y94410238D01*
X6712714Y94410238D01*
X6903190Y94505476D01*
X6998428Y94600714D01*
X7093666Y94791190D01*
X7093666Y95267380D01*
X6998428Y95457857D01*
X6903190Y95553095D01*
X6712714Y95648333D01*
X6331761Y95648333D01*
X6141285Y95553095D01*
X6046047Y95457857D01*
X5950809Y95267380D01*
X8807952Y95743571D02*
X8807952Y94410238D01*
X8331761Y96505476D02*
X7855571Y95076904D01*
X9093666Y95076904D01*
X9855571Y94410238D02*
X9855571Y96410238D01*
X10998428Y94410238D01*
X10998428Y96410238D01*
X11950809Y94410238D02*
X11950809Y96410238D01*
X12712714Y96410238D01*
X12903190Y96315000D01*
X12998428Y96219761D01*
X13093666Y96029285D01*
X13093666Y95743571D01*
X12998428Y95553095D01*
X12903190Y95457857D01*
X12712714Y95362619D01*
X11950809Y95362619D01*
X14807952Y96410238D02*
X14426999Y96410238D01*
X14236523Y96315000D01*
X14141285Y96219761D01*
X13950809Y95934047D01*
X13855571Y95553095D01*
X13855571Y94791190D01*
X13950809Y94600714D01*
X14046047Y94505476D01*
X14236523Y94410238D01*
X14617476Y94410238D01*
X14807952Y94505476D01*
X14903190Y94600714D01*
X14998428Y94791190D01*
X14998428Y95267380D01*
X14903190Y95457857D01*
X14807952Y95553095D01*
X14617476Y95648333D01*
X14236523Y95648333D01*
X14046047Y95553095D01*
X13950809Y95457857D01*
X13855571Y95267380D01*
D12*
%TO.P,C4,1*%
%TO.N,/VCC*%
X90533000Y67749000D03*
%TO.P,C4,2*%
%TO.N,/GND*%
X90533000Y62649000D03*
%TD*%
%TO.P,C3,1*%
%TO.N,/VCC*%
X26068000Y55158000D03*
%TO.P,C3,2*%
%TO.N,/GND*%
X26068000Y50058000D03*
%TD*%
%TO.P,C2,1*%
%TO.N,/VCC*%
X20589000Y72104000D03*
%TO.P,C2,2*%
%TO.N,/GND*%
X20589000Y67004000D03*
%TD*%
D13*
%TO.P,U4,1,A18*%
%TO.N,unconnected-(U4-Pad1)*%
X82611000Y56059000D03*
%TO.P,U4,2,A16*%
%TO.N,/A16*%
X82610000Y57328000D03*
%TO.P,U4,3,A15*%
%TO.N,/A15*%
X82609000Y58638000D03*
%TO.P,U4,4,A12*%
%TO.N,/A12*%
X82609000Y59908000D03*
D14*
%TO.P,U4,5,A7*%
%TO.N,/A7*%
X80704000Y61771000D03*
%TO.P,U4,6,A6*%
%TO.N,/A6*%
X79474000Y61774000D03*
%TO.P,U4,7,A5*%
%TO.N,/A5*%
X78167000Y61772000D03*
%TO.P,U4,8,A4*%
%TO.N,/A4*%
X76896000Y61773000D03*
%TO.P,U4,9,A3*%
%TO.N,/A3*%
X75664000Y61775000D03*
%TO.P,U4,10,A2*%
%TO.N,/A2*%
X74353000Y61772000D03*
%TO.P,U4,11,A1*%
%TO.N,/A1*%
X73085000Y61773000D03*
%TO.P,U4,12,A0*%
%TO.N,/A0*%
X71814000Y61773000D03*
%TO.P,U4,13,Ad0*%
%TO.N,/AD0*%
X70546000Y61773000D03*
D13*
%TO.P,U4,14,Ad1*%
%TO.N,/AD1*%
X68640000Y59948000D03*
%TO.P,U4,15,Ad2*%
%TO.N,/AD2*%
X68641000Y58678000D03*
%TO.P,U4,16,GND*%
%TO.N,/GND*%
X68639000Y57368000D03*
%TO.P,U4,17,Ad3*%
%TO.N,/AD3*%
X68637000Y56097000D03*
%TO.P,U4,18,Ad4*%
%TO.N,/AD4*%
X68640000Y54786000D03*
%TO.P,U4,19,Ad5*%
%TO.N,/AD5*%
X68637000Y53520000D03*
%TO.P,U4,20,Ad6*%
%TO.N,/AD6*%
X68639000Y52289000D03*
D14*
%TO.P,U4,21,Ad7*%
%TO.N,/AD7*%
X70545000Y50343000D03*
%TO.P,U4,22,CE#*%
%TO.N,/Chip_Enable*%
X71817000Y50343000D03*
%TO.P,U4,23,A10*%
%TO.N,/A10*%
X73085000Y50342000D03*
%TO.P,U4,24,OE#*%
%TO.N,/Output_Enable*%
X74356000Y50343000D03*
%TO.P,U4,25,A11*%
%TO.N,/A11*%
X75663000Y50344000D03*
%TO.P,U4,26,A9*%
%TO.N,/A9*%
X76895000Y50343000D03*
%TO.P,U4,27,A8*%
%TO.N,/A8*%
X78164000Y50346000D03*
%TO.P,U4,28,A13*%
%TO.N,/A13*%
X79476000Y50343000D03*
%TO.P,U4,29,A14*%
%TO.N,/A14*%
X80707000Y50342000D03*
D13*
%TO.P,U4,30,A17*%
%TO.N,unconnected-(U4-Pad30)*%
X82611000Y52247000D03*
%TO.P,U4,31,WE#*%
%TO.N,/SST_Write*%
X82608000Y53478000D03*
%TO.P,U4,32,VCC*%
%TO.N,/VCC*%
X82609000Y54749000D03*
%TD*%
D15*
%TO.P,U1,1,CLK/I0*%
%TO.N,unconnected-(U1-Pad1)*%
X18144000Y86171000D03*
%TO.P,U1,2,I1*%
%TO.N,/{slash}write*%
X16874000Y86171000D03*
%TO.P,U1,3,I2*%
%TO.N,/ALE_H*%
X15604000Y86171000D03*
D16*
%TO.P,U1,4,I3*%
%TO.N,/{slash}read_bottom*%
X14146000Y84713000D03*
%TO.P,U1,5,I4*%
%TO.N,/ALE_L*%
X14146000Y83443000D03*
%TO.P,U1,6,I5*%
%TO.N,/AD10*%
X14146000Y82173000D03*
%TO.P,U1,7,I6*%
%TO.N,/Altera_44*%
X14146000Y80903000D03*
%TO.P,U1,8,I7*%
%TO.N,/{slash}COLD_RESET*%
X14146000Y79633000D03*
D15*
%TO.P,U1,9,I8*%
%TO.N,/Altera_39*%
X15604000Y78175000D03*
%TO.P,U1,10,GND*%
%TO.N,/GND*%
X16874000Y78175000D03*
%TO.P,U1,11,\u002AOE/I9*%
%TO.N,unconnected-(U1-Pad11)*%
X18144000Y78175000D03*
%TO.P,U1,12,I/O0*%
%TO.N,unconnected-(U1-Pad12)*%
X19414000Y78175000D03*
%TO.P,U1,13,I/O1*%
%TO.N,unconnected-(U1-Pad13)*%
X20684000Y78175000D03*
D16*
%TO.P,U1,14,I/O2*%
%TO.N,unconnected-(U1-Pad14)*%
X22142000Y79633000D03*
%TO.P,U1,15,I/O3*%
%TO.N,unconnected-(U1-Pad15)*%
X22142000Y80903000D03*
%TO.P,U1,16,I/O4*%
%TO.N,unconnected-(U1-Pad16)*%
X22142000Y82173000D03*
%TO.P,U1,17,I/O5*%
%TO.N,/{slash}read_top*%
X22142000Y83443000D03*
%TO.P,U1,18,I/O6*%
%TO.N,/Chip_Enable*%
X22142000Y84713000D03*
D15*
%TO.P,U1,19,I/O7*%
%TO.N,unconnected-(U1-Pad19)*%
X20684000Y86171000D03*
%TO.P,U1,20,VCC*%
%TO.N,/VCC*%
X19414000Y86171000D03*
%TD*%
D17*
%TO.P,U2,1,I/~{GCLR}*%
%TO.N,/GND*%
X46604000Y76849000D03*
%TO.P,U2,2,I/~{OE2}/GCLK2*%
X45329000Y76849000D03*
%TO.P,U2,3,VCCINT*%
%TO.N,/VCC*%
X44054000Y76849000D03*
%TO.P,U2,4,IO1_2*%
%TO.N,/AD7*%
X42779000Y76849000D03*
%TO.P,U2,5,IO1_3*%
%TO.N,/{slash}write*%
X41504000Y76849000D03*
%TO.P,U2,6,IO1_4*%
%TO.N,unconnected-(U2-Pad6)*%
X40229000Y76849000D03*
%TO.P,U2,7,GND1*%
%TO.N,/GND*%
X38954000Y76849000D03*
%TO.P,U2,8,IO1_5*%
%TO.N,/AD15*%
X37679000Y76849000D03*
%TO.P,U2,9,IO1_6*%
%TO.N,/AD14*%
X36404000Y76849000D03*
%TO.P,U2,10,IO1_7*%
%TO.N,/AD12*%
X35129000Y76849000D03*
%TO.P,U2,11,IO2_0*%
%TO.N,unconnected-(U2-Pad11)*%
X33854000Y76849000D03*
D18*
%TO.P,U2,12,IO2_1*%
%TO.N,/ALE_H*%
X32004000Y74999000D03*
%TO.P,U2,13,VCCIO1*%
%TO.N,/VCC*%
X32004000Y73724000D03*
%TO.P,U2,14,IO/TDI*%
%TO.N,/ALE_L*%
X32004000Y72449000D03*
%TO.P,U2,15,IO2_2*%
%TO.N,/{slash}read_bottom*%
X32004000Y71174000D03*
%TO.P,U2,16,IO2_3*%
%TO.N,/AD1*%
X32004000Y69899000D03*
%TO.P,U2,17,IO2_4*%
%TO.N,/AD0*%
X32004000Y68624000D03*
%TO.P,U2,18,IO2_5*%
%TO.N,/A16*%
X32004000Y67349000D03*
%TO.P,U2,19,GND2*%
%TO.N,/GND*%
X32004000Y66074000D03*
%TO.P,U2,20,IO2_6*%
%TO.N,/A15*%
X32004000Y64799000D03*
%TO.P,U2,21,IO2_7*%
%TO.N,/AD8*%
X32004000Y63524000D03*
%TO.P,U2,22,IO3_0*%
%TO.N,/VCC*%
X32004000Y62249000D03*
%TO.P,U2,23,IO/TMS*%
%TO.N,unconnected-(U2-Pad23)*%
X32004000Y60974000D03*
%TO.P,U2,24,IO3_1*%
%TO.N,unconnected-(U2-Pad24)*%
X32004000Y59699000D03*
%TO.P,U2,25,IO3_2*%
%TO.N,unconnected-(U2-Pad25)*%
X32004000Y58424000D03*
%TO.P,U2,26,VCCIO2*%
%TO.N,/VCC*%
X32004000Y57149000D03*
%TO.P,U2,27,IO3_3*%
%TO.N,/AD10*%
X32004000Y55874000D03*
%TO.P,U2,28,IO3_4*%
%TO.N,/A10*%
X32004000Y54599000D03*
%TO.P,U2,29,IO3_5*%
%TO.N,/A11*%
X32004000Y53324000D03*
%TO.P,U2,30,IO3_6*%
%TO.N,/AD5*%
X32004000Y52049000D03*
%TO.P,U2,31,IO3_7*%
%TO.N,/AD4*%
X32004000Y50774000D03*
%TO.P,U2,32,GND3*%
%TO.N,/GND*%
X32004000Y49499000D03*
D17*
%TO.P,U2,33,IO4_0*%
%TO.N,unconnected-(U2-Pad33)*%
X33854000Y47649000D03*
%TO.P,U2,34,IO4_1*%
%TO.N,/A14*%
X35129000Y47649000D03*
%TO.P,U2,35,IO4_2*%
%TO.N,/AD3*%
X36404000Y47649000D03*
%TO.P,U2,36,IO4_3*%
%TO.N,/A13*%
X37679000Y47649000D03*
%TO.P,U2,37,IO4_4*%
%TO.N,unconnected-(U2-Pad37)*%
X38954000Y47649000D03*
%TO.P,U2,38,VCCIO3*%
%TO.N,/VCC*%
X40229000Y47649000D03*
%TO.P,U2,39,IO4_5*%
%TO.N,/Altera_39*%
X41504000Y47649000D03*
%TO.P,U2,40,IO4_6*%
%TO.N,/AD2*%
X42779000Y47649000D03*
%TO.P,U2,41,IO4_7*%
%TO.N,/A12*%
X44054000Y47649000D03*
%TO.P,U2,42,GND4*%
%TO.N,/GND*%
X45329000Y47649000D03*
%TO.P,U2,43,VCCINT*%
%TO.N,/VCC*%
X46604000Y47649000D03*
%TO.P,U2,44,IO5_0*%
%TO.N,/Altera_44*%
X47879000Y47649000D03*
%TO.P,U2,45,IO5_1*%
%TO.N,unconnected-(U2-Pad45)*%
X49154000Y47649000D03*
%TO.P,U2,46,IO4_2*%
%TO.N,unconnected-(U2-Pad46)*%
X50429000Y47649000D03*
%TO.P,U2,47,GND5*%
%TO.N,/GND*%
X51704000Y47649000D03*
%TO.P,U2,48,IO5_3*%
%TO.N,unconnected-(U2-Pad48)*%
X52979000Y47649000D03*
%TO.P,U2,49,IO5_4*%
%TO.N,unconnected-(U2-Pad49)*%
X54254000Y47649000D03*
%TO.P,U2,50,IO5_5*%
%TO.N,/Output_Enable*%
X55529000Y47649000D03*
%TO.P,U2,51,IO5_6*%
%TO.N,/SST_Write*%
X56804000Y47649000D03*
%TO.P,U2,52,IO5_7*%
%TO.N,unconnected-(U2-Pad52)*%
X58079000Y47649000D03*
%TO.P,U2,53,VCCIO4*%
%TO.N,/VCC*%
X59354000Y47649000D03*
D18*
%TO.P,U2,54,IO6_0*%
%TO.N,unconnected-(U2-Pad54)*%
X61204000Y49499000D03*
%TO.P,U2,55,IO6_1*%
%TO.N,/Loop1*%
X61204000Y50774000D03*
%TO.P,U2,56,IO6_2*%
%TO.N,unconnected-(U2-Pad56)*%
X61204000Y52049000D03*
%TO.P,U2,57,IO6_3*%
%TO.N,unconnected-(U2-Pad57)*%
X61204000Y53324000D03*
%TO.P,U2,58,IO6_4*%
%TO.N,/GND*%
X61204000Y54599000D03*
%TO.P,U2,59,GND6*%
X61204000Y55874000D03*
%TO.P,U2,60,IO6_5*%
%TO.N,unconnected-(U2-Pad60)*%
X61204000Y57149000D03*
%TO.P,U2,61,IO6_6*%
%TO.N,/{slash}read_middle*%
X61204000Y58424000D03*
%TO.P,U2,62,IO/TCK*%
%TO.N,/AD6*%
X61204000Y59699000D03*
%TO.P,U2,63,IO6_7*%
%TO.N,/A8*%
X61204000Y60974000D03*
%TO.P,U2,64,IO7_0*%
%TO.N,/AD11*%
X61204000Y62249000D03*
%TO.P,U2,65,IO7_1*%
%TO.N,/A6*%
X61204000Y63524000D03*
%TO.P,U2,66,VCCIO5*%
%TO.N,/VCC*%
X61204000Y64799000D03*
%TO.P,U2,67,IO7_2*%
%TO.N,/A5*%
X61204000Y66074000D03*
%TO.P,U2,68,IO7_3*%
%TO.N,/A0*%
X61204000Y67349000D03*
%TO.P,U2,69,IO7_4*%
%TO.N,/AD9*%
X61204000Y68624000D03*
%TO.P,U2,70,IO7_5*%
%TO.N,/{slash}COLD_RESET*%
X61204000Y69899000D03*
%TO.P,U2,71,IO/TDO*%
%TO.N,/A7*%
X61204000Y71174000D03*
%TO.P,U2,72,GND7*%
%TO.N,/GND*%
X61204000Y72449000D03*
%TO.P,U2,73,IO7_6*%
%TO.N,unconnected-(U2-Pad73)*%
X61204000Y73724000D03*
%TO.P,U2,74,IO7_7*%
%TO.N,/A3*%
X61204000Y74999000D03*
D17*
%TO.P,U2,75,IO8_0*%
%TO.N,unconnected-(U2-Pad75)*%
X59354000Y76849000D03*
%TO.P,U2,76,IO8_1*%
%TO.N,/A9*%
X58079000Y76849000D03*
%TO.P,U2,77,IO8_2*%
%TO.N,unconnected-(U2-Pad77)*%
X56804000Y76849000D03*
%TO.P,U2,78,VCCIO6*%
%TO.N,/VCC*%
X55529000Y76849000D03*
%TO.P,U2,79,IO8_3*%
%TO.N,/A4*%
X54254000Y76849000D03*
%TO.P,U2,80,IO8_4*%
%TO.N,/A1*%
X52979000Y76849000D03*
%TO.P,U2,81,IO8_5*%
%TO.N,/A2*%
X51704000Y76849000D03*
%TO.P,U2,82,GND8*%
%TO.N,/GND*%
X50429000Y76849000D03*
%TO.P,U2,83,I/GCLK1*%
%TO.N,/AD13*%
X49154000Y76849000D03*
%TO.P,U2,84,I/~{OE1}*%
%TO.N,/Loop1*%
X47879000Y76849000D03*
%TD*%
D19*
%TO.P,J1,1,Pin_1*%
%TO.N,/GND*%
X23404000Y37184000D03*
%TO.P,J1,2,Pin_2*%
X25922000Y37184000D03*
%TO.P,J1,3,Pin_3*%
%TO.N,/AD15*%
X28447000Y37184000D03*
%TO.P,J1,4,Pin_4*%
%TO.N,/AD14*%
X30974000Y37184000D03*
%TO.P,J1,5,Pin_5*%
%TO.N,/AD13*%
X33493000Y37184000D03*
%TO.P,J1,6,Pin_6*%
%TO.N,/GND*%
X36012000Y37184000D03*
%TO.P,J1,7,Pin_7*%
%TO.N,/AD12*%
X38535000Y37184000D03*
%TO.P,J1,8,Pin_8*%
%TO.N,/{slash}write*%
X41054000Y37184000D03*
%TO.P,J1,9,Pin_9*%
%TO.N,/VCC*%
X43573000Y37184000D03*
%TO.P,J1,10,Pin_10*%
%TO.N,/{slash}read_bottom*%
X46101000Y37184000D03*
%TO.P,J1,11,Pin_11*%
%TO.N,/AD11*%
X48626000Y37184000D03*
%TO.P,J1,12,Pin_12*%
%TO.N,/AD10*%
X51147000Y37184000D03*
%TO.P,J1,13,Pin_13*%
%TO.N,/12V_Front*%
X53671000Y37184000D03*
%TO.P,J1,14,Pin_14*%
%TO.N,unconnected-(J1-Pad14)*%
X56191000Y37184000D03*
%TO.P,J1,15,Pin_15*%
%TO.N,/AD9*%
X58711000Y37184000D03*
%TO.P,J1,16,Pin_16*%
%TO.N,/AD8*%
X61230000Y37184000D03*
%TO.P,J1,17,Pin_17*%
%TO.N,/VCC*%
X63748000Y37184000D03*
%TO.P,J1,18,Pin_18*%
%TO.N,/CIC_15*%
X66272000Y37184000D03*
%TO.P,J1,19,Pin_19*%
%TO.N,/CIC_11*%
X68798000Y37184000D03*
%TO.P,J1,20,Pin_20*%
%TO.N,/{slash}COLD_RESET*%
X71316000Y37184000D03*
%TO.P,J1,21,Pin_21*%
%TO.N,/EEPROM_DAT*%
X73836000Y37184000D03*
%TO.P,J1,22,Pin_22*%
%TO.N,/GND*%
X76355000Y37184000D03*
%TO.P,J1,23,Pin_23*%
X78885000Y37184000D03*
%TO.P,J1,24,Pin_24*%
%TO.N,/LAUDIO*%
X81411000Y37184000D03*
%TO.P,J1,25,Pin_25*%
%TO.N,/GND*%
X83930000Y37184000D03*
%TD*%
D13*
%TO.P,U3,1,A18*%
%TO.N,unconnected-(U3-Pad1)*%
X82611000Y74742000D03*
%TO.P,U3,2,A16*%
%TO.N,/A16*%
X82610000Y76011000D03*
%TO.P,U3,3,A15*%
%TO.N,/A15*%
X82609000Y77321000D03*
%TO.P,U3,4,A12*%
%TO.N,/A12*%
X82609000Y78591000D03*
D14*
%TO.P,U3,5,A7*%
%TO.N,/A7*%
X80704000Y80454000D03*
%TO.P,U3,6,A6*%
%TO.N,/A6*%
X79474000Y80457000D03*
%TO.P,U3,7,A5*%
%TO.N,/A5*%
X78167000Y80455000D03*
%TO.P,U3,8,A4*%
%TO.N,/A4*%
X76896000Y80456000D03*
%TO.P,U3,9,A3*%
%TO.N,/A3*%
X75664000Y80458000D03*
%TO.P,U3,10,A2*%
%TO.N,/A2*%
X74353000Y80455000D03*
%TO.P,U3,11,A1*%
%TO.N,/A1*%
X73085000Y80456000D03*
%TO.P,U3,12,A0*%
%TO.N,/A0*%
X71814000Y80456000D03*
%TO.P,U3,13,Ad8*%
%TO.N,/AD8*%
X70546000Y80456000D03*
D13*
%TO.P,U3,14,Ad9*%
%TO.N,/AD9*%
X68640000Y78631000D03*
%TO.P,U3,15,Ad10*%
%TO.N,/AD10*%
X68641000Y77361000D03*
%TO.P,U3,16,GND*%
%TO.N,/GND*%
X68639000Y76051000D03*
%TO.P,U3,17,Ad11*%
%TO.N,/AD11*%
X68637000Y74780000D03*
%TO.P,U3,18,Ad12*%
%TO.N,/AD12*%
X68640000Y73469000D03*
%TO.P,U3,19,Ad13*%
%TO.N,/AD13*%
X68637000Y72203000D03*
%TO.P,U3,20,Ad14*%
%TO.N,/AD14*%
X68639000Y70972000D03*
D14*
%TO.P,U3,21,Ad15*%
%TO.N,/AD15*%
X70545000Y69026000D03*
%TO.P,U3,22,CE#*%
%TO.N,/Chip_Enable*%
X71817000Y69026000D03*
%TO.P,U3,23,A10*%
%TO.N,/A10*%
X73085000Y69025000D03*
%TO.P,U3,24,OE#*%
%TO.N,/Output_Enable*%
X74356000Y69026000D03*
%TO.P,U3,25,A11*%
%TO.N,/A11*%
X75663000Y69027000D03*
%TO.P,U3,26,A9*%
%TO.N,/A9*%
X76895000Y69026000D03*
%TO.P,U3,27,A8*%
%TO.N,/A8*%
X78164000Y69029000D03*
%TO.P,U3,28,A13*%
%TO.N,/A13*%
X79476000Y69026000D03*
%TO.P,U3,29,A14*%
%TO.N,/A14*%
X80707000Y69025000D03*
D13*
%TO.P,U3,30,A17*%
%TO.N,unconnected-(U3-Pad30)*%
X82611000Y70930000D03*
%TO.P,U3,31,WE#*%
%TO.N,/SST_Write*%
X82608000Y72161000D03*
%TO.P,U3,32,VCC*%
%TO.N,/VCC*%
X82609000Y73432000D03*
%TD*%
D20*
%TO.P,J4,1,Pin_1*%
%TO.N,/GND*%
X23295000Y95327000D03*
%TO.P,J4,2,Pin_2*%
X25813000Y95327000D03*
%TO.P,J4,3,Pin_3*%
%TO.N,/AD15*%
X28338000Y95327000D03*
%TO.P,J4,4,Pin_4*%
%TO.N,/AD14*%
X30865000Y95327000D03*
%TO.P,J4,5,Pin_5*%
%TO.N,/AD13*%
X33384000Y95327000D03*
%TO.P,J4,6,Pin_6*%
%TO.N,/GND*%
X35903000Y95327000D03*
%TO.P,J4,7,Pin_7*%
%TO.N,/AD12*%
X38426000Y95327000D03*
%TO.P,J4,8,Pin_8*%
%TO.N,/{slash}write*%
X40945000Y95327000D03*
%TO.P,J4,9,Pin_9*%
%TO.N,/VCC*%
X43464000Y95327000D03*
%TO.P,J4,10,Pin_10*%
%TO.N,/{slash}read_top*%
X45992000Y95327000D03*
%TO.P,J4,11,Pin_11*%
%TO.N,/AD11*%
X48517000Y95327000D03*
%TO.P,J4,12,Pin_12*%
%TO.N,/AD10*%
X51038000Y95327000D03*
%TO.P,J4,13,Pin_13*%
%TO.N,/12V_Front*%
X53562000Y95327000D03*
%TO.P,J4,14,Pin_14*%
%TO.N,/12V_2_Front*%
X56082000Y95327000D03*
%TO.P,J4,15,Pin_15*%
%TO.N,/AD9*%
X58602000Y95327000D03*
%TO.P,J4,16,Pin_16*%
%TO.N,/AD8*%
X61121000Y95327000D03*
%TO.P,J4,17,Pin_17*%
%TO.N,/VCC*%
X63639000Y95327000D03*
%TO.P,J4,18,Pin_18*%
%TO.N,unconnected-(J4-Pad18)*%
X66163000Y95327000D03*
%TO.P,J4,19,Pin_19*%
%TO.N,/CIC_11*%
X68689000Y95327000D03*
%TO.P,J4,20,Pin_20*%
%TO.N,/{slash}COLD_RESET*%
X71207000Y95327000D03*
%TO.P,J4,21,Pin_21*%
%TO.N,/EEPROM_DAT*%
X73727000Y95327000D03*
%TO.P,J4,22,Pin_22*%
%TO.N,/GND*%
X76246000Y95327000D03*
%TO.P,J4,23,Pin_23*%
X78776000Y95327000D03*
%TO.P,J4,24,Pin_24*%
%TO.N,/LAUDIO*%
X81302000Y95327000D03*
%TO.P,J4,25,Pin_25*%
%TO.N,/GND*%
X83821000Y95327000D03*
%TD*%
D21*
%TO.N,/Loop1*%
X54467700Y71820600D03*
X56719000Y50674600D03*
%TO.N,/Altera_39*%
X40927300Y49821300D03*
X40376200Y58780800D03*
%TO.N,/{slash}read_middle*%
X45790200Y59139300D03*
%TO.N,/{slash}read_top*%
X46731700Y92334700D03*
X46709500Y85132800D03*
%TO.N,/12V_2_Front*%
X56082000Y91248200D03*
%TO.N,/LAUDIO*%
X81684600Y86241300D03*
%TO.N,/{slash}COLD_RESET*%
X71284400Y91086900D03*
X25473400Y72233900D03*
X18556400Y79873800D03*
X68742200Y69899000D03*
%TO.N,/CIC_11*%
X69219700Y90603600D03*
%TO.N,/CIC_15*%
X67382500Y43118800D03*
%TO.N,/12V_Front*%
X52661100Y43020000D03*
X53557800Y91252400D03*
%TO.N,/{slash}read_bottom*%
X47135700Y43083000D03*
X47375500Y67382100D03*
X25440800Y71174000D03*
X17142500Y80711700D03*
%TO.N,/{slash}write*%
X42257900Y78697500D03*
X41880300Y91278100D03*
X41159200Y88300300D03*
X42075400Y43518100D03*
%TO.N,/ALE_H*%
X45442000Y89322700D03*
X45238000Y82318900D03*
%TO.N,/ALE_L*%
X40219800Y72896200D03*
X40160600Y89631200D03*
%TO.N,/AD0*%
X28962800Y68848300D03*
%TO.N,/AD1*%
X30305400Y70435400D03*
%TO.N,/AD2*%
X35781700Y61626300D03*
X35176800Y51949100D03*
%TO.N,/AD3*%
X38535000Y49541400D03*
X40927300Y63844300D03*
X65353900Y62898300D03*
X65353900Y56364900D03*
%TO.N,/AD4*%
X48377300Y62424500D03*
X40477200Y62424500D03*
X37696300Y50282300D03*
X48934100Y53537100D03*
%TO.N,/AD5*%
X51332500Y52014700D03*
X51139000Y55755700D03*
X40477200Y55755700D03*
X39178500Y52674200D03*
%TO.N,/AD6*%
X59423400Y60084100D03*
X59144100Y51411500D03*
%TO.N,/AD7*%
X60266200Y84207900D03*
X60842100Y48051300D03*
%TO.N,/VCC*%
X63639000Y92342800D03*
X63748000Y42990100D03*
X43639000Y73724000D03*
X44747900Y78501800D03*
X43335100Y45897200D03*
X43365700Y42970200D03*
X62470500Y46611000D03*
X43382900Y87698100D03*
X62389000Y79840600D03*
X43382900Y92335900D03*
X62935300Y64256600D03*
X43891300Y49768100D03*
X90533000Y66288800D03*
X84378100Y55000000D03*
%TO.N,/SST_Write*%
X68473400Y48992900D03*
X70746300Y53811000D03*
X71665600Y44162300D03*
%TO.N,/A13*%
X80075800Y52101300D03*
X80708200Y64260700D03*
%TO.N,/A8*%
X78164000Y52083600D03*
X78414300Y64264000D03*
X64497400Y60012500D03*
X65823500Y45285100D03*
%TO.N,/A9*%
X73452000Y70829600D03*
X72811800Y82254700D03*
X72856500Y54895800D03*
%TO.N,/A11*%
X75030400Y52052200D03*
X76161400Y64242300D03*
%TO.N,/Output_Enable*%
X74069800Y52538200D03*
X73940500Y64252500D03*
%TO.N,/A10*%
X37464700Y55359500D03*
X38672900Y69261500D03*
X64717900Y68736500D03*
X64269400Y47508100D03*
%TO.N,/Chip_Enable*%
X69560000Y68455800D03*
X70934200Y52099300D03*
X68130300Y86903400D03*
%TO.N,/AD15*%
X28572100Y92315800D03*
X73415700Y73561100D03*
X72828100Y86219500D03*
X29743200Y74586500D03*
X29793000Y45040600D03*
%TO.N,/AD14*%
X30349600Y92111500D03*
X65532800Y70972000D03*
X65022300Y85728100D03*
X32888000Y76181900D03*
X31874800Y43430600D03*
%TO.N,/AD13*%
X33402000Y92314300D03*
X33770300Y72348000D03*
X33096200Y44729000D03*
%TO.N,/AD12*%
X37378200Y79568100D03*
X39071900Y71406000D03*
X37358100Y42850500D03*
X37807100Y91408300D03*
%TO.N,/AD11*%
X49497700Y62377600D03*
X49424400Y42990400D03*
X64370400Y62157800D03*
X66141700Y74255200D03*
X48876200Y91950200D03*
%TO.N,/GND*%
X35849100Y43009300D03*
X38253500Y75133100D03*
X83629000Y43024700D03*
X82171300Y43941600D03*
X79073000Y42997100D03*
X78086700Y92310900D03*
X26323500Y68944500D03*
X76647600Y57645800D03*
X74302900Y74724900D03*
X86565300Y62568900D03*
X25922000Y45710500D03*
X83821000Y91972200D03*
X36139000Y91914900D03*
%TO.N,/AD10*%
X50546900Y43149000D03*
X49485600Y90420000D03*
X52007200Y80830300D03*
%TO.N,/AD9*%
X57519700Y68019000D03*
X57516400Y42779900D03*
X58379600Y91771000D03*
X58639000Y74218000D03*
%TO.N,/AD8*%
X61916700Y43071400D03*
X59572500Y56558700D03*
X61057300Y91527600D03*
X62314600Y76912000D03*
%TO.N,/A0*%
X70285200Y64505000D03*
X71685700Y76395200D03*
%TO.N,/A1*%
X72056900Y72836000D03*
X72030100Y64016000D03*
%TO.N,/A2*%
X75648300Y73574100D03*
X74676100Y59998100D03*
%TO.N,/A3*%
X68493400Y81594800D03*
X70171800Y83967400D03*
X75795200Y72152500D03*
X75805500Y60028700D03*
%TO.N,/A4*%
X62918200Y80992300D03*
X65590200Y83669300D03*
X78081900Y75177100D03*
X78604800Y59639600D03*
%TO.N,/A5*%
X77351900Y66631000D03*
X78028300Y76448200D03*
%TO.N,/A6*%
X68758100Y63702600D03*
X70373900Y56512400D03*
X79946700Y63524200D03*
X79474000Y76074600D03*
%TO.N,/A7*%
X82884200Y81027500D03*
X82158700Y63231100D03*
X65091000Y72496200D03*
X66780800Y85444100D03*
%TO.N,/A12*%
X74324200Y47937600D03*
X76113200Y55985300D03*
X84743100Y65778500D03*
X84743100Y78591000D03*
%TO.N,/A15*%
X80289800Y76693100D03*
X55104300Y59463700D03*
X55752400Y83255200D03*
X78052300Y82221400D03*
X81748300Y69052200D03*
%TO.N,/A16*%
X69054800Y60914100D03*
X70385500Y55510500D03*
X85710100Y64673200D03*
X85845000Y75552400D03*
%TD*%
D22*
%TO.N,/Loop1*%
X52339800Y71820600D02*
X54467700Y71820600D01*
X47879000Y76281400D02*
X52339800Y71820600D01*
X47879000Y76849000D02*
X47879000Y76281400D01*
X61104600Y50674600D02*
X61204000Y50774000D01*
X56719000Y50674600D02*
X61104600Y50674600D01*
%TO.N,/Altera_44*%
X14146000Y80903000D02*
X12743900Y80903000D01*
X47879000Y48254200D02*
X47879000Y47649000D01*
X41194500Y54938700D02*
X47879000Y48254200D01*
X40268800Y54938700D02*
X41194500Y54938700D01*
X34606500Y60601000D02*
X40268800Y54938700D01*
X34606500Y61526700D02*
X34606500Y60601000D01*
X33246700Y62886500D02*
X34606500Y61526700D01*
X21120300Y62886500D02*
X33246700Y62886500D01*
X12743900Y71262900D02*
X21120300Y62886500D01*
X12743900Y80903000D02*
X12743900Y71262900D01*
%TO.N,/Altera_39*%
X34995500Y64161500D02*
X40376200Y58780800D01*
X20481900Y64161500D02*
X34995500Y64161500D01*
X15604000Y69039400D02*
X20481900Y64161500D01*
X15604000Y78175000D02*
X15604000Y69039400D01*
X41504000Y49244600D02*
X40927300Y49821300D01*
X41504000Y47649000D02*
X41504000Y49244600D01*
%TO.N,/{slash}read_middle*%
X46505500Y58424000D02*
X61204000Y58424000D01*
X45790200Y59139300D02*
X46505500Y58424000D01*
%TO.N,/{slash}read_top*%
X22760700Y83443000D02*
X22780600Y83423100D01*
X22142000Y83443000D02*
X22760700Y83443000D01*
X22820300Y83383400D02*
X22800500Y83403300D01*
X22800500Y83403300D02*
X22780600Y83423100D01*
X45992000Y95327000D02*
X45992000Y92626900D01*
X46439500Y92626900D02*
X45992000Y92626900D01*
X46731700Y92334700D02*
X46439500Y92626900D01*
X23435000Y84037800D02*
X22800500Y83403300D01*
X34996400Y84037800D02*
X23435000Y84037800D01*
X36091400Y85132800D02*
X34996400Y84037800D01*
X46709500Y85132800D02*
X36091400Y85132800D01*
D23*
%TO.N,/12V_2_Front*%
X56082000Y95327000D02*
X56082000Y91248200D01*
D22*
%TO.N,/LAUDIO*%
X81280000Y37315000D02*
X81280000Y41155900D01*
X81411000Y37184000D02*
X81280000Y37315000D01*
X81160900Y41275000D02*
X81280000Y41155900D01*
X81160900Y41870300D02*
X81160900Y41275000D01*
X81302000Y95327000D02*
X81302000Y92626900D01*
X81684600Y92244300D02*
X81302000Y92626900D01*
X81684600Y86241300D02*
X81684600Y92244300D01*
X95192300Y72733600D02*
X81684600Y86241300D01*
X95192300Y53067200D02*
X95192300Y72733600D01*
X85875000Y43749900D02*
X95192300Y53067200D01*
X83040500Y43749900D02*
X85875000Y43749900D01*
X81160900Y41870300D02*
X83040500Y43749900D01*
%TO.N,/EEPROM_DAT*%
X73836000Y41257800D02*
X73836000Y37184000D01*
X73699700Y41394100D02*
X73836000Y41257800D01*
X73540900Y42068800D02*
X73540900Y42004300D01*
X73540900Y41552800D02*
X73699700Y41394100D01*
X73540900Y42004300D02*
X73540900Y41552800D01*
X73727000Y95327000D02*
X73727000Y92626900D01*
X74248200Y92626900D02*
X73727000Y92626900D01*
X83522200Y83352900D02*
X74248200Y92626900D01*
X83847700Y83352900D02*
X83522200Y83352900D01*
X94742200Y72458400D02*
X83847700Y83352900D01*
X94742200Y53253700D02*
X94742200Y72458400D01*
X86171600Y44683100D02*
X94742200Y53253700D01*
X79603300Y44683100D02*
X86171600Y44683100D01*
X78500900Y43580700D02*
X79603300Y44683100D01*
X76218400Y43580700D02*
X78500900Y43580700D01*
X74642000Y42004300D02*
X76218400Y43580700D01*
X73540900Y42004300D02*
X74642000Y42004300D01*
%TO.N,/{slash}COLD_RESET*%
X71316000Y37184000D02*
X71316000Y42684100D01*
X71207000Y91164300D02*
X71207000Y95327000D01*
X71284400Y91086900D02*
X71207000Y91164300D01*
X14146000Y79633000D02*
X15548100Y79633000D01*
X18315600Y79633000D02*
X18556400Y79873800D01*
X15548100Y79633000D02*
X18315600Y79633000D01*
X61204000Y69899000D02*
X68742200Y69899000D01*
X44715000Y69899000D02*
X61204000Y69899000D01*
X44462100Y70151900D02*
X44715000Y69899000D01*
X34941000Y70151900D02*
X44462100Y70151900D01*
X33293100Y71799800D02*
X34941000Y70151900D01*
X25907500Y71799800D02*
X33293100Y71799800D01*
X25473400Y72233900D02*
X25907500Y71799800D01*
X75128200Y91086900D02*
X71284400Y91086900D01*
X83312300Y82902800D02*
X75128200Y91086900D01*
X83661200Y82902800D02*
X83312300Y82902800D01*
X94235800Y72328200D02*
X83661200Y82902800D01*
X94235800Y53383900D02*
X94235800Y72328200D01*
X85985100Y45133200D02*
X94235800Y53383900D01*
X79416800Y45133200D02*
X85985100Y45133200D01*
X78314400Y44030800D02*
X79416800Y45133200D01*
X76031900Y44030800D02*
X78314400Y44030800D01*
X74685200Y42684100D02*
X76031900Y44030800D01*
X71316000Y42684100D02*
X74685200Y42684100D01*
%TO.N,/CIC_11*%
X68689000Y95327000D02*
X68689000Y92626900D01*
X69219700Y92096200D02*
X69219700Y90603600D01*
X68689000Y92626900D02*
X69219700Y92096200D01*
X68798000Y37184000D02*
X68798000Y42684100D01*
X71134400Y88688900D02*
X69219700Y90603600D01*
X76889500Y88688900D02*
X71134400Y88688900D01*
X83125700Y82452700D02*
X76889500Y88688900D01*
X83474700Y82452700D02*
X83125700Y82452700D01*
X93785700Y72141700D02*
X83474700Y82452700D01*
X93785700Y53570400D02*
X93785700Y72141700D01*
X85849500Y45634200D02*
X93785700Y53570400D01*
X79281200Y45634200D02*
X85849500Y45634200D01*
X78128000Y44481000D02*
X79281200Y45634200D01*
X75845500Y44481000D02*
X78128000Y44481000D01*
X74801700Y43437200D02*
X75845500Y44481000D01*
X69551100Y43437200D02*
X74801700Y43437200D01*
X68798000Y42684100D02*
X69551100Y43437200D01*
%TO.N,/CIC_15*%
X66272000Y37184000D02*
X66272000Y42684100D01*
X66947800Y42684100D02*
X67382500Y43118800D01*
X66272000Y42684100D02*
X66947800Y42684100D01*
D23*
%TO.N,/12V_Front*%
X52661100Y42350800D02*
X53498800Y41513100D01*
X52661100Y43020000D02*
X52661100Y42350800D01*
X53562000Y95327000D02*
X53562000Y92501900D01*
D22*
X53498800Y41513100D02*
X53578100Y41433800D01*
D23*
X53578100Y37276900D02*
X53578100Y41433800D01*
X53671000Y37184000D02*
X53578100Y37276900D01*
X53557800Y92497700D02*
X53562000Y92501900D01*
X53557800Y91252400D02*
X53557800Y92497700D01*
D22*
%TO.N,/{slash}read_bottom*%
X47091400Y43083000D02*
X47135700Y43083000D01*
X46235900Y42227500D02*
X47091400Y43083000D01*
X46235900Y41076600D02*
X46235900Y41652100D01*
X46235900Y41652100D02*
X46235900Y42227500D01*
X46101000Y41517200D02*
X46101000Y37184000D01*
X46235900Y41652100D02*
X46101000Y41517200D01*
X33219700Y71174000D02*
X32004000Y71174000D01*
X35783300Y68610400D02*
X33219700Y71174000D01*
X37932000Y68610400D02*
X35783300Y68610400D01*
X39160300Y67382100D02*
X37932000Y68610400D01*
X47375500Y67382100D02*
X39160300Y67382100D01*
X17142500Y83118600D02*
X15548100Y84713000D01*
X17142500Y80711700D02*
X17142500Y83118600D01*
X14146000Y84713000D02*
X15548100Y84713000D01*
X32004000Y71174000D02*
X25440800Y71174000D01*
%TO.N,/{slash}write*%
X41880300Y91691600D02*
X41880300Y91278100D01*
X40945000Y92626900D02*
X41880300Y91691600D01*
X40945000Y95327000D02*
X40945000Y92626900D01*
X41139800Y88280900D02*
X41159200Y88300300D01*
X18490100Y88280900D02*
X41139800Y88280900D01*
X16874000Y86664800D02*
X18490100Y88280900D01*
X16874000Y86171000D02*
X16874000Y86664800D01*
X41241400Y42684100D02*
X41054000Y42684100D01*
X42075400Y43518100D02*
X41241400Y42684100D01*
X41054000Y37184000D02*
X41054000Y42684100D01*
X41504000Y77943600D02*
X42257900Y78697500D01*
X41504000Y76849000D02*
X41504000Y77943600D01*
%TO.N,/ALE_H*%
X32100500Y74902500D02*
X32004000Y74999000D01*
X36284100Y74902500D02*
X32100500Y74902500D01*
X37041500Y75659900D02*
X36284100Y74902500D01*
X37041500Y78034400D02*
X37041500Y75659900D01*
X41326000Y82318900D02*
X37041500Y78034400D01*
X45238000Y82318900D02*
X41326000Y82318900D01*
X41156300Y89322700D02*
X45442000Y89322700D01*
X40572400Y88738800D02*
X41156300Y89322700D01*
X17692200Y88738800D02*
X40572400Y88738800D01*
X15604000Y86650600D02*
X17692200Y88738800D01*
X15604000Y86171000D02*
X15604000Y86650600D01*
%TO.N,/ALE_L*%
X14146000Y83443000D02*
X12743900Y83443000D01*
X32628100Y73073100D02*
X32004000Y72449000D01*
X40042900Y73073100D02*
X32628100Y73073100D01*
X40219800Y72896200D02*
X40042900Y73073100D01*
X17357100Y89631200D02*
X40160600Y89631200D01*
X12743900Y85018000D02*
X17357100Y89631200D01*
X12743900Y83443000D02*
X12743900Y85018000D01*
%TO.N,/AD0*%
X70546000Y61773000D02*
X70546000Y63233100D01*
X31779700Y68848300D02*
X32004000Y68624000D01*
X28962800Y68848300D02*
X31779700Y68848300D01*
X70497300Y63233100D02*
X70546000Y63233100D01*
X68294000Y65436400D02*
X70497300Y63233100D01*
X39795100Y65436400D02*
X68294000Y65436400D01*
X37182100Y68049400D02*
X39795100Y65436400D01*
X32578600Y68049400D02*
X37182100Y68049400D01*
X32004000Y68624000D02*
X32578600Y68049400D01*
%TO.N,/AD1*%
X68640000Y59948000D02*
X67179900Y59948000D01*
X31467600Y70435400D02*
X32004000Y69899000D01*
X30305400Y70435400D02*
X31467600Y70435400D01*
X29455400Y70435400D02*
X30305400Y70435400D01*
X28237700Y69217700D02*
X29455400Y70435400D01*
X28237700Y68548000D02*
X28237700Y69217700D01*
X30074200Y66711500D02*
X28237700Y68548000D01*
X34356200Y66711500D02*
X30074200Y66711500D01*
X40114400Y60953300D02*
X34356200Y66711500D01*
X56864400Y60953300D02*
X40114400Y60953300D01*
X58756100Y59061600D02*
X56864400Y60953300D01*
X66293500Y59061600D02*
X58756100Y59061600D01*
X67179900Y59948000D02*
X66293500Y59061600D01*
%TO.N,/AD2*%
X66546100Y58043200D02*
X67180900Y58678000D01*
X62779800Y58043200D02*
X66546100Y58043200D01*
X62511400Y57774800D02*
X62779800Y58043200D01*
X39633200Y57774800D02*
X62511400Y57774800D01*
X35781700Y61626300D02*
X39633200Y57774800D01*
X68641000Y58678000D02*
X67180900Y58678000D01*
X39857600Y51949100D02*
X35176800Y51949100D01*
X42779000Y49027700D02*
X39857600Y51949100D01*
X42779000Y47649000D02*
X42779000Y49027700D01*
%TO.N,/AD3*%
X37720700Y49541400D02*
X38535000Y49541400D01*
X36404000Y48224700D02*
X37720700Y49541400D01*
X36404000Y47649000D02*
X36404000Y48224700D01*
X68637000Y56097000D02*
X67176900Y56097000D01*
X66909000Y56364900D02*
X65353900Y56364900D01*
X67176900Y56097000D02*
X66909000Y56364900D01*
X59007300Y63844300D02*
X40927300Y63844300D01*
X59953300Y62898300D02*
X59007300Y63844300D01*
X65353900Y62898300D02*
X59953300Y62898300D01*
%TO.N,/AD4*%
X32495700Y50282300D02*
X37696300Y50282300D01*
X32004000Y50774000D02*
X32495700Y50282300D01*
X63326600Y54786000D02*
X68640000Y54786000D01*
X62510800Y53970200D02*
X63326600Y54786000D01*
X49367200Y53970200D02*
X62510800Y53970200D01*
X48934100Y53537100D02*
X49367200Y53970200D01*
X48377300Y62424500D02*
X40477200Y62424500D01*
%TO.N,/AD5*%
X68637000Y53520000D02*
X67176900Y53520000D01*
X52004300Y52686500D02*
X51332500Y52014700D01*
X66343400Y52686500D02*
X52004300Y52686500D01*
X67176900Y53520000D02*
X66343400Y52686500D01*
X51139000Y55755700D02*
X40477200Y55755700D01*
X32629200Y52674200D02*
X39178500Y52674200D01*
X32004000Y52049000D02*
X32629200Y52674200D01*
%TO.N,/AD6*%
X59423400Y60084000D02*
X59423400Y60084100D01*
X60819000Y60084000D02*
X59423400Y60084000D01*
X61204000Y59699000D02*
X60819000Y60084000D01*
X66301400Y51411500D02*
X59144100Y51411500D01*
X67178900Y52289000D02*
X66301400Y51411500D01*
X68639000Y52289000D02*
X67178900Y52289000D01*
%TO.N,/AD7*%
X53441100Y84207900D02*
X60266200Y84207900D01*
X51228600Y81995400D02*
X53441100Y84207900D01*
X47212600Y81995400D02*
X51228600Y81995400D01*
X42779000Y77561800D02*
X47212600Y81995400D01*
X42779000Y76849000D02*
X42779000Y77561800D01*
X70545000Y50343000D02*
X70545000Y48882900D01*
X61024300Y48233500D02*
X60842100Y48051300D01*
X69895600Y48233500D02*
X61024300Y48233500D01*
X70545000Y48882900D02*
X69895600Y48233500D01*
D23*
%TO.N,/VCC*%
X63748000Y37184000D02*
X63748000Y42809100D01*
X63639000Y95327000D02*
X63639000Y92501900D01*
X43573000Y37184000D02*
X43573000Y42809100D01*
X43526800Y42809100D02*
X43365700Y42970200D01*
X43573000Y42809100D02*
X43526800Y42809100D01*
X44054000Y77807900D02*
X44747900Y78501800D01*
X44054000Y76849000D02*
X44054000Y77807900D01*
X41250700Y45897200D02*
X43335100Y45897200D01*
X40229000Y46918900D02*
X41250700Y45897200D01*
X40229000Y47649000D02*
X40229000Y46918900D01*
X26068000Y55158000D02*
X26068000Y56458100D01*
X31223900Y62249000D02*
X32004000Y62249000D01*
X30348800Y61373900D02*
X31223900Y62249000D01*
X30348800Y57912200D02*
X30348800Y61373900D01*
X31112000Y57149000D02*
X30348800Y57912200D01*
X32004000Y57149000D02*
X31112000Y57149000D01*
X27522100Y57912200D02*
X26068000Y56458100D01*
X30348800Y57912200D02*
X27522100Y57912200D01*
X20589000Y72104000D02*
X22664100Y72104000D01*
X60392000Y46611000D02*
X62470500Y46611000D01*
X59354000Y47649000D02*
X60392000Y46611000D01*
X32060500Y73780500D02*
X32004000Y73724000D01*
X43582500Y73780500D02*
X32060500Y73780500D01*
X43639000Y73724000D02*
X43582500Y73780500D01*
X19414000Y86171000D02*
X19414000Y87698100D01*
X63639000Y92501900D02*
X63639000Y92342800D01*
X43127200Y87442400D02*
X43382900Y87698100D01*
X21689800Y87442400D02*
X43127200Y87442400D01*
X21434100Y87698100D02*
X21689800Y87442400D01*
X19414000Y87698100D02*
X21434100Y87698100D01*
X63639000Y92342800D02*
X63639000Y89145200D01*
X57795900Y79840600D02*
X62389000Y79840600D01*
X55529000Y77573700D02*
X57795900Y79840600D01*
X55529000Y76849000D02*
X55529000Y77573700D01*
X43464000Y95327000D02*
X43464000Y92501900D01*
X43464000Y92417000D02*
X43382900Y92335900D01*
X43464000Y92501900D02*
X43464000Y92417000D01*
X24284100Y73724000D02*
X22664100Y72104000D01*
X32004000Y73724000D02*
X24284100Y73724000D01*
X63748000Y42809100D02*
X63748000Y42990100D01*
X62392900Y64799000D02*
X61204000Y64799000D01*
X62935300Y64256600D02*
X62392900Y64799000D01*
X36909500Y57149000D02*
X32004000Y57149000D01*
X43891300Y50167200D02*
X36909500Y57149000D01*
X43891300Y49768100D02*
X43891300Y50167200D01*
X45227700Y49768100D02*
X43891300Y49768100D01*
X46604000Y48391800D02*
X45227700Y49768100D01*
X46604000Y47649000D02*
X46604000Y48391800D01*
X62191900Y87698100D02*
X63639000Y89145200D01*
X43382900Y87698100D02*
X62191900Y87698100D01*
X90533000Y67749000D02*
X90533000Y66288800D01*
X82609000Y54749000D02*
X84194100Y54749000D01*
X84194100Y54816000D02*
X84194100Y54749000D01*
X84378100Y55000000D02*
X84194100Y54816000D01*
X82609000Y73432000D02*
X86062600Y73432000D01*
X65030700Y87753500D02*
X63639000Y89145200D01*
X76929100Y87753500D02*
X65030700Y87753500D01*
X82805000Y81877600D02*
X76929100Y87753500D01*
X83236400Y81877600D02*
X82805000Y81877600D01*
X86733000Y78381000D02*
X83236400Y81877600D01*
X86733000Y74102400D02*
X86733000Y78381000D01*
X86062600Y73432000D02*
X86733000Y74102400D01*
X90445500Y69049100D02*
X90533000Y69049100D01*
X86062600Y73432000D02*
X90445500Y69049100D01*
X90533000Y67749000D02*
X90533000Y69049100D01*
D22*
%TO.N,/SST_Write*%
X68353700Y48873200D02*
X68473400Y48992900D01*
X60007100Y48873200D02*
X68353700Y48873200D01*
X59723000Y49157300D02*
X60007100Y48873200D01*
X57710900Y49157300D02*
X59723000Y49157300D01*
X56804000Y48250400D02*
X57710900Y49157300D01*
X56804000Y47649000D02*
X56804000Y48250400D01*
X75299800Y53478000D02*
X82608000Y53478000D01*
X73156900Y55620900D02*
X75299800Y53478000D01*
X72556200Y55620900D02*
X73156900Y55620900D01*
X70746300Y53811000D02*
X72556200Y55620900D01*
X85776600Y70452500D02*
X84068100Y72161000D01*
X85776600Y69560300D02*
X85776600Y70452500D01*
X90496500Y64840400D02*
X85776600Y69560300D01*
X91276300Y64840400D02*
X90496500Y64840400D01*
X93335600Y62781100D02*
X91276300Y64840400D01*
X93335600Y53756900D02*
X93335600Y62781100D01*
X87710100Y48131400D02*
X93335600Y53756900D01*
X81141800Y48131400D02*
X87710100Y48131400D01*
X78100400Y45090000D02*
X81141800Y48131400D01*
X75464400Y45090000D02*
X78100400Y45090000D01*
X74536700Y44162300D02*
X75464400Y45090000D01*
X71665600Y44162300D02*
X74536700Y44162300D01*
X82608000Y72161000D02*
X84068100Y72161000D01*
%TO.N,/A14*%
X80707000Y50342000D02*
X80707000Y50159500D01*
X80707000Y50159500D02*
X80707000Y48881900D01*
X80707000Y69139300D02*
X80707000Y69025000D01*
X81406500Y69838800D02*
X80707000Y69139300D01*
X82389600Y69838800D02*
X81406500Y69838800D01*
X86457900Y65770500D02*
X82389600Y69838800D01*
X86457900Y64395500D02*
X86457900Y65770500D01*
X85164500Y63102100D02*
X86457900Y64395500D01*
X85164500Y52780400D02*
X85164500Y63102100D01*
X82543600Y50159500D02*
X85164500Y52780400D01*
X80707000Y50159500D02*
X82543600Y50159500D01*
X35129000Y47095600D02*
X35129000Y47649000D01*
X37981400Y44243200D02*
X35129000Y47095600D01*
X42375800Y44243200D02*
X37981400Y44243200D01*
X42599800Y44019200D02*
X42375800Y44243200D01*
X70497100Y44019200D02*
X42599800Y44019200D01*
X71365300Y44887400D02*
X70497100Y44019200D01*
X74625100Y44887400D02*
X71365300Y44887400D01*
X75818900Y46081200D02*
X74625100Y44887400D01*
X77906300Y46081200D02*
X75818900Y46081200D01*
X80707000Y48881900D02*
X77906300Y46081200D01*
%TO.N,/A13*%
X79476000Y49725000D02*
X79476000Y48882900D01*
X79476000Y49725000D02*
X79476000Y50343000D01*
X79476000Y65492900D02*
X79476000Y69026000D01*
X80708200Y64260700D02*
X79476000Y65492900D01*
X79777600Y51803100D02*
X80075800Y52101300D01*
X79476000Y51803100D02*
X79777600Y51803100D01*
X79476000Y50343000D02*
X79476000Y51803100D01*
X37679000Y47099300D02*
X37679000Y47649000D01*
X40085000Y44693300D02*
X37679000Y47099300D01*
X42562300Y44693300D02*
X40085000Y44693300D01*
X42786300Y44469300D02*
X42562300Y44693300D01*
X70310600Y44469300D02*
X42786300Y44469300D01*
X71178800Y45337500D02*
X70310600Y44469300D01*
X74438600Y45337500D02*
X71178800Y45337500D01*
X76397100Y47296000D02*
X74438600Y45337500D01*
X77889100Y47296000D02*
X76397100Y47296000D01*
X79476000Y48882900D02*
X77889100Y47296000D01*
%TO.N,/A8*%
X78164000Y50346000D02*
X78164000Y52083600D01*
X78164000Y69029000D02*
X78164000Y67568900D01*
X78414300Y67318600D02*
X78164000Y67568900D01*
X78414300Y64264000D02*
X78414300Y67318600D01*
X62840100Y60012500D02*
X64497400Y60012500D01*
X61878600Y60974000D02*
X62840100Y60012500D01*
X61204000Y60974000D02*
X61878600Y60974000D01*
X78164000Y50346000D02*
X78164000Y48885900D01*
X70489800Y45285100D02*
X65823500Y45285100D01*
X70992300Y45787600D02*
X70489800Y45285100D01*
X74154700Y45787600D02*
X70992300Y45787600D01*
X76113200Y47746100D02*
X74154700Y45787600D01*
X77024200Y47746100D02*
X76113200Y47746100D01*
X78164000Y48885900D02*
X77024200Y47746100D01*
%TO.N,/A9*%
X76895000Y69026000D02*
X76895000Y70486100D01*
X75814200Y52883900D02*
X76895000Y51803100D01*
X74868400Y52883900D02*
X75814200Y52883900D01*
X72856500Y54895800D02*
X74868400Y52883900D01*
X76895000Y50343000D02*
X76895000Y51803100D01*
X72724600Y82341900D02*
X72811800Y82254700D01*
X66561500Y82341900D02*
X72724600Y82341900D01*
X66263600Y82044000D02*
X66561500Y82341900D01*
X65890900Y82044000D02*
X66263600Y82044000D01*
X62463100Y78616200D02*
X65890900Y82044000D01*
X59293900Y78616200D02*
X62463100Y78616200D01*
X58079000Y77401300D02*
X59293900Y78616200D01*
X58079000Y76849000D02*
X58079000Y77401300D01*
X76551500Y70829600D02*
X76895000Y70486100D01*
X73452000Y70829600D02*
X76551500Y70829600D01*
%TO.N,/A11*%
X75278500Y51804100D02*
X75030400Y52052200D01*
X75663000Y51804100D02*
X75278500Y51804100D01*
X75663000Y50344000D02*
X75663000Y51804100D01*
X75663000Y64740700D02*
X75663000Y69027000D01*
X76161400Y64242300D02*
X75663000Y64740700D01*
X31420300Y53324000D02*
X32004000Y53324000D01*
X30523000Y52426700D02*
X31420300Y53324000D01*
X30523000Y51692400D02*
X30523000Y52426700D01*
X30792200Y51423200D02*
X30523000Y51692400D01*
X34677000Y51423200D02*
X30792200Y51423200D01*
X35001300Y51098900D02*
X34677000Y51423200D01*
X38008500Y51098900D02*
X35001300Y51098900D01*
X39591500Y49515900D02*
X38008500Y51098900D01*
X39591500Y46461900D02*
X39591500Y49515900D01*
X40910000Y45143400D02*
X39591500Y46461900D01*
X42748800Y45143400D02*
X40910000Y45143400D01*
X42972800Y44919400D02*
X42748800Y45143400D01*
X64393900Y44919400D02*
X42972800Y44919400D01*
X65562200Y46087700D02*
X64393900Y44919400D01*
X70655800Y46087700D02*
X65562200Y46087700D01*
X70805800Y46237700D02*
X70655800Y46087700D01*
X73704500Y46237700D02*
X70805800Y46237700D01*
X75663000Y48196200D02*
X73704500Y46237700D01*
X75663000Y50344000D02*
X75663000Y48196200D01*
%TO.N,/Output_Enable*%
X74069900Y52538200D02*
X74069800Y52538200D01*
X74069900Y50629100D02*
X74069900Y52538200D01*
X74356000Y50343000D02*
X74069900Y50629100D01*
X74356000Y64668000D02*
X73940500Y64252500D01*
X74356000Y69026000D02*
X74356000Y64668000D01*
X74356000Y50343000D02*
X74356000Y48882900D01*
X55529000Y47026800D02*
X55529000Y47649000D01*
X56715400Y45840400D02*
X55529000Y47026800D01*
X64041600Y45840400D02*
X56715400Y45840400D01*
X65189100Y46987900D02*
X64041600Y45840400D01*
X70282800Y46987900D02*
X65189100Y46987900D01*
X70732900Y47438000D02*
X70282800Y46987900D01*
X72799300Y47438000D02*
X70732900Y47438000D01*
X74244200Y48882900D02*
X72799300Y47438000D01*
X74356000Y48882900D02*
X74244200Y48882900D01*
%TO.N,/A10*%
X73085000Y69025000D02*
X73085000Y67564900D01*
X36704200Y54599000D02*
X37464700Y55359500D01*
X32004000Y54599000D02*
X36704200Y54599000D01*
X64192900Y69261500D02*
X38672900Y69261500D01*
X64717900Y68736500D02*
X64192900Y69261500D01*
X73085000Y50342000D02*
X73085000Y48881900D01*
X72619200Y67099100D02*
X73085000Y67564900D01*
X66355300Y67099100D02*
X72619200Y67099100D01*
X64717900Y68736500D02*
X66355300Y67099100D01*
X70166400Y47508100D02*
X64269400Y47508100D01*
X71540200Y48881900D02*
X70166400Y47508100D01*
X73085000Y48881900D02*
X71540200Y48881900D01*
%TO.N,/Chip_Enable*%
X71817000Y69026000D02*
X71817000Y67565900D01*
X69560000Y68014600D02*
X69560000Y68455800D01*
X70008700Y67565900D02*
X69560000Y68014600D01*
X71817000Y67565900D02*
X70008700Y67565900D01*
X71817000Y50343000D02*
X71817000Y51803100D01*
X71230400Y51803100D02*
X70934200Y52099300D01*
X71817000Y51803100D02*
X71230400Y51803100D01*
X22142000Y84713000D02*
X23544100Y84713000D01*
X25516500Y86685400D02*
X23544100Y84713000D01*
X67912300Y86685400D02*
X25516500Y86685400D01*
X68130300Y86903400D02*
X67912300Y86685400D01*
%TO.N,/AD15*%
X28338000Y95327000D02*
X28338000Y92626900D01*
X28572100Y92392800D02*
X28572100Y92315800D01*
X28338000Y92626900D02*
X28572100Y92392800D01*
X37679000Y77446400D02*
X37679000Y76849000D01*
X39934900Y79702300D02*
X37679000Y77446400D01*
X44282800Y79702300D02*
X39934900Y79702300D01*
X47351200Y82770700D02*
X44282800Y79702300D01*
X51367200Y82770700D02*
X47351200Y82770700D01*
X53586700Y84990200D02*
X51367200Y82770700D01*
X65377000Y84990200D02*
X53586700Y84990200D01*
X65759600Y85372800D02*
X65377000Y84990200D01*
X65759600Y85448400D02*
X65759600Y85372800D01*
X66480600Y86169400D02*
X65759600Y85448400D01*
X72778000Y86169400D02*
X66480600Y86169400D01*
X72828100Y86219500D02*
X72778000Y86169400D01*
X71713000Y73561100D02*
X73415700Y73561100D01*
X70545000Y72393100D02*
X71713000Y73561100D01*
X70545000Y69026000D02*
X70545000Y72393100D01*
X29974000Y74355700D02*
X29743200Y74586500D01*
X36450600Y74355700D02*
X29974000Y74355700D01*
X37679000Y75584100D02*
X36450600Y74355700D01*
X37679000Y76849000D02*
X37679000Y75584100D01*
X29793000Y44030100D02*
X29793000Y45040600D01*
X28447000Y42684100D02*
X29793000Y44030100D01*
X28447000Y37184000D02*
X28447000Y42684100D01*
%TO.N,/AD14*%
X30865000Y95327000D02*
X30865000Y92626900D01*
X30865000Y92626900D02*
X30349600Y92111500D01*
X68639000Y70972000D02*
X65532800Y70972000D01*
X53036200Y85728100D02*
X65022300Y85728100D01*
X50529000Y83220900D02*
X53036200Y85728100D01*
X38400300Y83220900D02*
X50529000Y83220900D01*
X32888000Y77708600D02*
X38400300Y83220900D01*
X32888000Y76181900D02*
X32888000Y77708600D01*
X36404000Y76278700D02*
X36404000Y76849000D01*
X35493300Y75368000D02*
X36404000Y76278700D01*
X33485100Y75368000D02*
X35493300Y75368000D01*
X32888000Y75965100D02*
X33485100Y75368000D01*
X32888000Y76181900D02*
X32888000Y75965100D01*
X31128300Y42684100D02*
X31874800Y43430600D01*
X30974000Y42684100D02*
X31128300Y42684100D01*
X30974000Y37184000D02*
X30974000Y42684100D01*
%TO.N,/AD13*%
X68637000Y72203000D02*
X67176900Y72203000D01*
X33402000Y92608900D02*
X33402000Y92314300D01*
X33384000Y92626900D02*
X33402000Y92608900D01*
X33384000Y95327000D02*
X33384000Y92626900D01*
X33096200Y43080900D02*
X33096200Y44729000D01*
X33493000Y42684100D02*
X33096200Y43080900D01*
X33493000Y37184000D02*
X33493000Y42684100D01*
X34428400Y71689900D02*
X33770300Y72348000D01*
X38321700Y71689900D02*
X34428400Y71689900D01*
X38321700Y71116800D02*
X38321700Y71689900D01*
X38799400Y70639100D02*
X38321700Y71116800D01*
X44611500Y70639100D02*
X38799400Y70639100D01*
X44702400Y70548200D02*
X44611500Y70639100D01*
X63901400Y70548200D02*
X44702400Y70548200D01*
X65088600Y71735400D02*
X63901400Y70548200D01*
X66709300Y71735400D02*
X65088600Y71735400D01*
X67176900Y72203000D02*
X66709300Y71735400D01*
X49154000Y77405300D02*
X49154000Y76849000D01*
X48213400Y78345900D02*
X49154000Y77405300D01*
X47548500Y78345900D02*
X48213400Y78345900D01*
X47241500Y78038900D02*
X47548500Y78345900D01*
X47241500Y75587400D02*
X47241500Y78038900D01*
X43825200Y72171100D02*
X47241500Y75587400D01*
X38802900Y72171100D02*
X43825200Y72171100D01*
X38321700Y71689900D02*
X38802900Y72171100D01*
%TO.N,/AD12*%
X35129000Y77398700D02*
X35129000Y76849000D01*
X37298400Y79568100D02*
X35129000Y77398700D01*
X37378200Y79568100D02*
X37298400Y79568100D01*
X65003200Y73469000D02*
X68640000Y73469000D01*
X63345600Y71811400D02*
X65003200Y73469000D01*
X57540600Y71811400D02*
X63345600Y71811400D01*
X56778600Y71049400D02*
X57540600Y71811400D01*
X51195600Y71049400D02*
X56778600Y71049400D01*
X50839000Y71406000D02*
X51195600Y71049400D01*
X39071900Y71406000D02*
X50839000Y71406000D01*
X37524500Y42684100D02*
X38535000Y42684100D01*
X37358100Y42850500D02*
X37524500Y42684100D01*
X38535000Y37184000D02*
X38535000Y42684100D01*
X37807100Y92008000D02*
X37807100Y91408300D01*
X38426000Y92626900D02*
X37807100Y92008000D01*
X38426000Y95327000D02*
X38426000Y92626900D01*
%TO.N,/AD11*%
X48696600Y37254600D02*
X48696600Y41473400D01*
X48626000Y37184000D02*
X48696600Y37254600D01*
X48736200Y41513100D02*
X48696600Y41473400D01*
X48736200Y42068800D02*
X48736200Y41513100D01*
X48736200Y42302200D02*
X49424400Y42990400D01*
X48736200Y42068800D02*
X48736200Y42302200D01*
X68637000Y74780000D02*
X67176900Y74780000D01*
X49626300Y62249000D02*
X61204000Y62249000D01*
X49497700Y62377600D02*
X49626300Y62249000D01*
X64279200Y62249000D02*
X64370400Y62157800D01*
X61204000Y62249000D02*
X64279200Y62249000D01*
X48517000Y95327000D02*
X48517000Y92626900D01*
X48876200Y92267700D02*
X48876200Y91950200D01*
X48517000Y92626900D02*
X48876200Y92267700D01*
X66652100Y74255200D02*
X66141700Y74255200D01*
X67176900Y74780000D02*
X66652100Y74255200D01*
D23*
%TO.N,/GND*%
X36012000Y41330200D02*
X36012000Y37184000D01*
X36036200Y41354400D02*
X36012000Y41330200D01*
X78776000Y95327000D02*
X76246000Y95327000D01*
X25813000Y95327000D02*
X23295000Y95327000D01*
X35903000Y95327000D02*
X35903000Y92501900D01*
D24*
X36075900Y41394100D02*
X36056100Y41374300D01*
X36056100Y41374300D02*
X36036200Y41354400D01*
D23*
X68639000Y76051000D02*
X67053900Y76051000D01*
X25813000Y95327000D02*
X25813000Y92501900D01*
D24*
X78620900Y41751200D02*
X78740000Y41632200D01*
D23*
X36056100Y42802300D02*
X35849100Y43009300D01*
X36056100Y41374300D02*
X36056100Y42802300D01*
X50429000Y76059800D02*
X50429000Y76849000D01*
X53113800Y73375000D02*
X50429000Y76059800D01*
X56850800Y73375000D02*
X53113800Y73375000D01*
X57776800Y72449000D02*
X56850800Y73375000D01*
X61204000Y72449000D02*
X57776800Y72449000D01*
X46604000Y78218600D02*
X46604000Y76849000D01*
X47327500Y78942100D02*
X46604000Y78218600D01*
X49068400Y78942100D02*
X47327500Y78942100D01*
X50429000Y77581500D02*
X49068400Y78942100D01*
X50429000Y76849000D02*
X50429000Y77581500D01*
X45329000Y76849000D02*
X46604000Y76849000D01*
X38954000Y76849000D02*
X38954000Y75833600D01*
X39572300Y75215300D02*
X38954000Y75833600D01*
X44512200Y75215300D02*
X39572300Y75215300D01*
X45329000Y76032100D02*
X44512200Y75215300D01*
X45329000Y76849000D02*
X45329000Y76032100D01*
X20589000Y67004000D02*
X20589000Y68304100D01*
X83700900Y42952800D02*
X83629000Y43024700D01*
X83700900Y41711600D02*
X83700900Y42952800D01*
X16874000Y72019100D02*
X16874000Y78175000D01*
X20589000Y68304100D02*
X16874000Y72019100D01*
X81226800Y42997100D02*
X82171300Y43941600D01*
X79073000Y42997100D02*
X81226800Y42997100D01*
X78776000Y95327000D02*
X78776000Y92501900D01*
X20589000Y67004000D02*
X21626600Y67004000D01*
X24383000Y67004000D02*
X26323500Y68944500D01*
X21626600Y67004000D02*
X24383000Y67004000D01*
X29194000Y66074000D02*
X26323500Y68944500D01*
X32004000Y66074000D02*
X29194000Y66074000D01*
X23404000Y37184000D02*
X23404000Y42809100D01*
X25922000Y37184000D02*
X25922000Y42634600D01*
X25922000Y42634600D02*
X25922000Y42809100D01*
X26068000Y50058000D02*
X26068000Y48757900D01*
X63601100Y55874000D02*
X61204000Y55874000D01*
X65095100Y57368000D02*
X63601100Y55874000D01*
X68639000Y57368000D02*
X65095100Y57368000D01*
D24*
X83700900Y41711600D02*
X83820000Y41592500D01*
D23*
X83820000Y37294000D02*
X83820000Y41592500D01*
X83930000Y37184000D02*
X83820000Y37294000D01*
X25922000Y42809100D02*
X23404000Y42809100D01*
X70501900Y57645800D02*
X70224100Y57368000D01*
X76647600Y57645800D02*
X70501900Y57645800D01*
X68639000Y57368000D02*
X70224100Y57368000D01*
X68639000Y76051000D02*
X70224100Y76051000D01*
X76355000Y37184000D02*
X76355000Y39996600D01*
X78885000Y37184000D02*
X78885000Y42809100D01*
X78620900Y42545000D02*
X78885000Y42809100D01*
X78620900Y41751200D02*
X78620900Y42545000D01*
X78109600Y41751200D02*
X78620900Y41751200D01*
X76355000Y39996600D02*
X78109600Y41751200D01*
X78885000Y42809100D02*
X79073000Y42997100D01*
X51704000Y46845200D02*
X51704000Y47649000D01*
X50903600Y46044800D02*
X51704000Y46845200D01*
X46173400Y46044800D02*
X50903600Y46044800D01*
X45329000Y46889200D02*
X46173400Y46044800D01*
X45329000Y47649000D02*
X45329000Y46889200D01*
X61204000Y54599000D02*
X61204000Y55874000D01*
X32004000Y48757900D02*
X26068000Y48757900D01*
X32004000Y48757900D02*
X32004000Y49499000D01*
X90533000Y62649000D02*
X88457900Y62649000D01*
X25922000Y42809100D02*
X25922000Y45710500D01*
X25922000Y48611900D02*
X26068000Y48757900D01*
X25922000Y45710500D02*
X25922000Y48611900D01*
X38954000Y75833600D02*
X38253500Y75133100D01*
X78277600Y92501800D02*
X78086700Y92310900D01*
X78776000Y92501800D02*
X78277600Y92501800D01*
X78776000Y92501900D02*
X78776000Y92501800D01*
X83821000Y95327000D02*
X83821000Y92501900D01*
X83821000Y92501900D02*
X83821000Y91972200D01*
X63133400Y72449000D02*
X61204000Y72449000D01*
X66735400Y76051000D02*
X63133400Y72449000D01*
X67053900Y76051000D02*
X66735400Y76051000D01*
X48777300Y54599000D02*
X61204000Y54599000D01*
X48080700Y53902400D02*
X48777300Y54599000D01*
X48080700Y53162000D02*
X48080700Y53902400D01*
X51704000Y49538700D02*
X48080700Y53162000D01*
X51704000Y47649000D02*
X51704000Y49538700D01*
X88377800Y62568900D02*
X86565300Y62568900D01*
X88457900Y62649000D02*
X88377800Y62568900D01*
X71550200Y74724900D02*
X74302900Y74724900D01*
X70224100Y76051000D02*
X71550200Y74724900D01*
X32004000Y47023400D02*
X32004000Y48757900D01*
X35849100Y43178300D02*
X32004000Y47023400D01*
X35849100Y43009300D02*
X35849100Y43178300D01*
X34987600Y91216900D02*
X35903000Y92132300D01*
X27098000Y91216900D02*
X34987600Y91216900D01*
X25813000Y92501900D02*
X27098000Y91216900D01*
X35903000Y92132300D02*
X35903000Y92501900D01*
X35921600Y92132300D02*
X36139000Y91914900D01*
X35903000Y92132300D02*
X35921600Y92132300D01*
D22*
%TO.N,/AD10*%
X51011800Y42684100D02*
X51147000Y42684100D01*
X50546900Y43149000D02*
X51011800Y42684100D01*
X51147000Y37184000D02*
X51147000Y42684100D01*
X51038000Y95327000D02*
X51038000Y92626900D01*
X66770000Y77361000D02*
X68641000Y77361000D01*
X62495500Y73086500D02*
X66770000Y77361000D01*
X58197400Y73086500D02*
X62495500Y73086500D01*
X56462900Y74821000D02*
X58197400Y73086500D01*
X53182800Y74821000D02*
X56462900Y74821000D01*
X52341500Y75662300D02*
X53182800Y74821000D01*
X52341500Y80496000D02*
X52341500Y75662300D01*
X52007200Y80830300D02*
X52341500Y80496000D01*
X49485600Y91074500D02*
X49485600Y90420000D01*
X51038000Y92626900D02*
X49485600Y91074500D01*
X14146000Y82173000D02*
X12743900Y82173000D01*
X12291500Y82625400D02*
X12743900Y82173000D01*
X12291500Y85205100D02*
X12291500Y82625400D01*
X17506400Y90420000D02*
X12291500Y85205100D01*
X49485600Y90420000D02*
X17506400Y90420000D01*
X12293700Y81722800D02*
X12743900Y82173000D01*
X12293700Y68770700D02*
X12293700Y81722800D01*
X23799300Y57265100D02*
X12293700Y68770700D01*
X23799300Y54470700D02*
X23799300Y57265100D01*
X24293800Y53976200D02*
X23799300Y54470700D01*
X29524600Y53976200D02*
X24293800Y53976200D01*
X31422400Y55874000D02*
X29524600Y53976200D01*
X32004000Y55874000D02*
X31422400Y55874000D01*
%TO.N,/AD9*%
X58124700Y68624000D02*
X61204000Y68624000D01*
X57519700Y68019000D02*
X58124700Y68624000D01*
X58711000Y37184000D02*
X58711000Y42684100D01*
X57612200Y42684100D02*
X57516400Y42779900D01*
X58711000Y42684100D02*
X57612200Y42684100D01*
X58379600Y92404500D02*
X58379600Y91771000D01*
X58602000Y92626900D02*
X58379600Y92404500D01*
X58602000Y95327000D02*
X58602000Y92626900D01*
X58782600Y74361600D02*
X58639000Y74218000D01*
X62408800Y74361600D02*
X58782600Y74361600D01*
X66678200Y78631000D02*
X62408800Y74361600D01*
X68640000Y78631000D02*
X66678200Y78631000D01*
%TO.N,/AD8*%
X61230000Y37184000D02*
X61230000Y42684100D01*
X61121000Y95327000D02*
X61121000Y92626900D01*
X61057300Y92563200D02*
X61057300Y91527600D01*
X61121000Y92626900D02*
X61057300Y92563200D01*
X61529400Y42684100D02*
X61916700Y43071400D01*
X61230000Y42684100D02*
X61529400Y42684100D01*
X39823900Y56558700D02*
X59572500Y56558700D01*
X35056600Y61326000D02*
X39823900Y56558700D01*
X35056600Y61713300D02*
X35056600Y61326000D01*
X33245900Y63524000D02*
X35056600Y61713300D01*
X32004000Y63524000D02*
X33245900Y63524000D01*
X65858600Y80456000D02*
X62314600Y76912000D01*
X70546000Y80456000D02*
X65858600Y80456000D01*
%TO.N,/A0*%
X71814000Y61773000D02*
X71814000Y63233100D01*
X68716200Y66074000D02*
X70285200Y64505000D01*
X64631100Y66074000D02*
X68716200Y66074000D01*
X63356100Y67349000D02*
X64631100Y66074000D01*
X61204000Y67349000D02*
X63356100Y67349000D01*
X71557100Y63233100D02*
X71814000Y63233100D01*
X70285200Y64505000D02*
X71557100Y63233100D01*
X71814000Y76523500D02*
X71685700Y76395200D01*
X71814000Y80456000D02*
X71814000Y76523500D01*
%TO.N,/A1*%
X72813000Y63233100D02*
X73085000Y63233100D01*
X72030100Y64016000D02*
X72813000Y63233100D01*
X73085000Y61773000D02*
X73085000Y63233100D01*
X73565400Y80936400D02*
X73085000Y80456000D01*
X73565400Y82543600D02*
X73565400Y80936400D01*
X73101800Y83007200D02*
X73565400Y82543600D01*
X72473600Y83007200D02*
X73101800Y83007200D01*
X72258500Y82792100D02*
X72473600Y83007200D01*
X66375100Y82792100D02*
X72258500Y82792100D01*
X66077100Y82494100D02*
X66375100Y82792100D01*
X64507400Y82494100D02*
X66077100Y82494100D01*
X63730800Y81717500D02*
X64507400Y82494100D01*
X57286500Y81717500D02*
X63730800Y81717500D01*
X52979000Y77410000D02*
X57286500Y81717500D01*
X52979000Y76849000D02*
X52979000Y77410000D01*
X73728500Y72836000D02*
X72056900Y72836000D01*
X75028100Y74135600D02*
X73728500Y72836000D01*
X75028100Y75411500D02*
X75028100Y74135600D01*
X73085000Y77354600D02*
X75028100Y75411500D01*
X73085000Y80456000D02*
X73085000Y77354600D01*
%TO.N,/A2*%
X74353000Y80930400D02*
X74353000Y81915100D01*
X74353000Y82392500D02*
X74353000Y81915100D01*
X73288200Y83457300D02*
X74353000Y82392500D01*
X72287100Y83457300D02*
X73288200Y83457300D01*
X72072000Y83242200D02*
X72287100Y83457300D01*
X66188600Y83242200D02*
X72072000Y83242200D01*
X65890600Y82944200D02*
X66188600Y83242200D01*
X62388600Y82944200D02*
X65890600Y82944200D01*
X61974500Y82530100D02*
X62388600Y82944200D01*
X52653800Y82530100D02*
X61974500Y82530100D01*
X51240900Y81117200D02*
X52653800Y82530100D01*
X51240900Y77312100D02*
X51240900Y81117200D01*
X51704000Y76849000D02*
X51240900Y77312100D01*
X74353000Y80930400D02*
X74353000Y80455000D01*
X74353000Y80455000D02*
X74353000Y78994900D01*
X75648300Y77699600D02*
X75648300Y73574100D01*
X74353000Y78994900D02*
X75648300Y77699600D01*
X74362300Y60311900D02*
X74676100Y59998100D01*
X74353000Y60311900D02*
X74362300Y60311900D01*
X74353000Y61772000D02*
X74353000Y60311900D01*
%TO.N,/A3*%
X75664000Y81188100D02*
X75664000Y81918100D01*
X70171800Y83967300D02*
X70171800Y83967400D01*
X73614800Y83967300D02*
X70171800Y83967300D01*
X75664000Y81918100D02*
X73614800Y83967300D01*
X61204000Y76826800D02*
X61204000Y74999000D01*
X62014300Y77637100D02*
X61204000Y76826800D01*
X62120700Y77637100D02*
X62014300Y77637100D01*
X66077500Y81593900D02*
X62120700Y77637100D01*
X68492500Y81593900D02*
X66077500Y81593900D01*
X68493400Y81594800D02*
X68492500Y81593900D01*
X75664000Y81188100D02*
X75664000Y80458000D01*
X75664000Y61775000D02*
X75664000Y60314900D01*
X75664000Y80458000D02*
X75664000Y78997900D01*
X75805500Y60173400D02*
X75664000Y60314900D01*
X75805500Y60028700D02*
X75805500Y60173400D01*
X76098500Y78563400D02*
X75664000Y78997900D01*
X76098500Y74149400D02*
X76098500Y78563400D01*
X76448100Y73799800D02*
X76098500Y74149400D01*
X76448100Y72805400D02*
X76448100Y73799800D01*
X75795200Y72152500D02*
X76448100Y72805400D01*
%TO.N,/A4*%
X76896000Y81074000D02*
X76896000Y81916100D01*
X57827300Y80992300D02*
X62918200Y80992300D01*
X54254000Y77419000D02*
X57827300Y80992300D01*
X54254000Y76849000D02*
X54254000Y77419000D01*
X74217900Y84594200D02*
X76896000Y81916100D01*
X72154800Y84594200D02*
X74217900Y84594200D01*
X72056500Y84692500D02*
X72154800Y84594200D01*
X67691300Y84692500D02*
X72056500Y84692500D01*
X66943200Y83944400D02*
X67691300Y84692500D01*
X65865300Y83944400D02*
X66943200Y83944400D01*
X65590200Y83669300D02*
X65865300Y83944400D01*
X77569300Y59639600D02*
X76896000Y60312900D01*
X78604800Y59639600D02*
X77569300Y59639600D01*
X76896000Y61773000D02*
X76896000Y60312900D01*
X76896000Y81074000D02*
X76896000Y80456000D01*
X76896000Y76363000D02*
X78081900Y75177100D01*
X76896000Y80456000D02*
X76896000Y76363000D01*
%TO.N,/A5*%
X78167000Y61772000D02*
X78167000Y63232100D01*
X78167000Y80455000D02*
X78167000Y78994900D01*
X77938900Y63460200D02*
X78167000Y63232100D01*
X77351900Y63460200D02*
X77938900Y63460200D01*
X78028300Y78856200D02*
X78028300Y76448200D01*
X78167000Y78994900D02*
X78028300Y78856200D01*
X77351900Y63460200D02*
X77351900Y66631000D01*
X73707300Y63460200D02*
X77351900Y63460200D01*
X70643300Y66524200D02*
X73707300Y63460200D01*
X65660200Y66524200D02*
X70643300Y66524200D01*
X64198000Y67986400D02*
X65660200Y66524200D01*
X60008800Y67986400D02*
X64198000Y67986400D01*
X59718100Y67695700D02*
X60008800Y67986400D01*
X59718100Y66967900D02*
X59718100Y67695700D01*
X60612000Y66074000D02*
X59718100Y66967900D01*
X61204000Y66074000D02*
X60612000Y66074000D01*
%TO.N,/A6*%
X65132800Y63702600D02*
X68758100Y63702600D01*
X64954200Y63524000D02*
X65132800Y63702600D01*
X61204000Y63524000D02*
X64954200Y63524000D01*
X79474000Y61117100D02*
X79474000Y60313900D01*
X79474000Y61117100D02*
X79474000Y61774000D01*
X79474000Y61774000D02*
X79474000Y63234100D01*
X70571900Y56710400D02*
X70373900Y56512400D01*
X76744500Y56710400D02*
X70571900Y56710400D01*
X79474000Y59439900D02*
X76744500Y56710400D01*
X79474000Y60313900D02*
X79474000Y59439900D01*
X79474000Y80457000D02*
X79474000Y78996900D01*
X79474000Y78996900D02*
X79474000Y76074600D01*
X79656600Y63234100D02*
X79946700Y63524200D01*
X79474000Y63234100D02*
X79656600Y63234100D01*
%TO.N,/A7*%
X80704000Y80454000D02*
X80704000Y81184100D01*
X80860600Y81027500D02*
X82884200Y81027500D01*
X80704000Y81184100D02*
X80860600Y81027500D01*
X80704000Y61771000D02*
X80704000Y63231100D01*
X80704000Y63231100D02*
X82158700Y63231100D01*
X63768800Y71174000D02*
X65091000Y72496200D01*
X61204000Y71174000D02*
X63768800Y71174000D01*
X76393700Y85494400D02*
X80704000Y81184100D01*
X72527800Y85494400D02*
X76393700Y85494400D01*
X72429500Y85592700D02*
X72527800Y85494400D01*
X66929400Y85592700D02*
X72429500Y85592700D01*
X66780800Y85444100D02*
X66929400Y85592700D01*
%TO.N,/A12*%
X82404500Y59908000D02*
X82404600Y59908000D01*
X82404500Y59908000D02*
X81148900Y59908000D01*
X82609000Y59908000D02*
X82404600Y59908000D01*
X82609000Y78591000D02*
X84069100Y78591000D01*
X77226200Y55985300D02*
X76113200Y55985300D01*
X81148900Y59908000D02*
X77226200Y55985300D01*
X84069100Y78591000D02*
X84743100Y78591000D01*
X83616100Y64651500D02*
X84743100Y65778500D01*
X83616100Y61119500D02*
X83616100Y64651500D01*
X82404600Y59908000D02*
X83616100Y61119500D01*
X44054000Y47097400D02*
X44054000Y47649000D01*
X45761100Y45390300D02*
X44054000Y47097400D01*
X64228100Y45390300D02*
X45761100Y45390300D01*
X65375600Y46537800D02*
X64228100Y45390300D01*
X70469300Y46537800D02*
X65375600Y46537800D01*
X70619300Y46687800D02*
X70469300Y46537800D01*
X73074400Y46687800D02*
X70619300Y46687800D01*
X74324200Y47937600D02*
X73074400Y46687800D01*
%TO.N,/A15*%
X80917700Y77321000D02*
X80289800Y76693100D01*
X82609000Y77321000D02*
X80917700Y77321000D01*
X54514900Y60053100D02*
X55104300Y59463700D01*
X40099700Y60053100D02*
X54514900Y60053100D01*
X35353800Y64799000D02*
X40099700Y60053100D01*
X32004000Y64799000D02*
X35353800Y64799000D01*
X75229400Y85044300D02*
X78052300Y82221400D01*
X72341300Y85044300D02*
X75229400Y85044300D01*
X72243000Y85142600D02*
X72341300Y85044300D01*
X67504800Y85142600D02*
X72243000Y85142600D01*
X66756700Y84394500D02*
X67504800Y85142600D01*
X62573800Y84394500D02*
X66756700Y84394500D01*
X61434500Y83255200D02*
X62573800Y84394500D01*
X55752400Y83255200D02*
X61434500Y83255200D01*
X82609000Y58638000D02*
X84069100Y58638000D01*
X84069100Y64079100D02*
X84069100Y58638000D01*
X85500700Y65510700D02*
X84069100Y64079100D01*
X85500700Y66060300D02*
X85500700Y65510700D01*
X82508800Y69052200D02*
X85500700Y66060300D01*
X81748300Y69052200D02*
X82508800Y69052200D01*
%TO.N,/A16*%
X64124300Y60914100D02*
X69054800Y60914100D01*
X63427000Y61611400D02*
X64124300Y60914100D01*
X40234600Y61611400D02*
X63427000Y61611400D01*
X34497000Y67349000D02*
X40234600Y61611400D01*
X32004000Y67349000D02*
X34497000Y67349000D01*
X81880000Y57328000D02*
X81262000Y57328000D01*
X71067100Y55510500D02*
X70385500Y55510500D01*
X71627600Y56071000D02*
X71067100Y55510500D01*
X73343400Y56071000D02*
X71627600Y56071000D01*
X74154200Y55260200D02*
X73343400Y56071000D01*
X79194200Y55260200D02*
X74154200Y55260200D01*
X81262000Y57328000D02*
X79194200Y55260200D01*
X81880000Y57328000D02*
X82610000Y57328000D01*
X84528700Y75552400D02*
X84070100Y76011000D01*
X85845000Y75552400D02*
X84528700Y75552400D01*
X82610000Y76011000D02*
X84070100Y76011000D01*
X82610000Y57328000D02*
X84070100Y57328000D01*
X84520200Y63483300D02*
X85710100Y64673200D01*
X84520200Y57778100D02*
X84520200Y63483300D01*
X84070100Y57328000D02*
X84520200Y57778100D01*
%TD*%
M02*
